<?xml version="1.0" encoding="UTF-8"?>
<svg width="1200pt" height="1200pt" version="1.1" viewBox="0 0 1200 1200" xmlns="http://www.w3.org/2000/svg">
 <path d="m858.12 383.05c-17.844-27.73-44.281-48.926-80.375-64.309l0.50391-1.6562c-5.7461-1.7266-11.652-3.3828-17.641-4.957-4.2109-1.4766-8.543-2.8789-12.973-4.2227-20.484-6.168-62.027-10.934-63.793-11.148l-0.097656 0.84375c-93.371-11.004-198.05 0.71875-276.7 59.062-43.586 32.293-69.023 94.945-88.164 151.97-42.816 128.88-24.648 221.81 58.957 301.31 44.137 41.914 142.07 96.18 209.28 96.18 3.4922 0 6.8984-0.15625 10.223-0.45703 3.0234-0.26562 7.2227-0.42187 12.156-0.61328 24.266-0.88672 64.895-2.3867 77.797-21.238 4.6797-6.8164 5.3633-15.098 2.0898-24.602-4.1641-12.07-23.016-7.6328-38.184-4.0938-3.9844 0.92578-7.4414 1.7539-9.7422 1.9805-50.207 5.2422-86.699 1.2734-122.03-13.188-75.109-30.91-168.01-98.543-182.68-187.38-6.8867-41.52 9.3008-88.066 23.605-129.13 2.4375-7.0078 4.8125-13.836 7.0078-20.438 13.754-41.074 31.246-87.023 64.871-112.51 62.723-47.426 136.15-51.277 218.69-51.277 50.914 0 108.83 3.2539 151.77 42.035 74.219 67.164 63.133 190.5 40.766 282.16-5.3398 21.852-15.277 62.531-38.438 77.977-19.211 12.816-34.512 16.246-45.504 10.078-23.41-13.117-26.93-67.379-26.543-111.17 2.3516-15.023 2.0039-35.941 1.8359-44.605-0.023437-1.6914-0.046875-2.832-0.035156-3.2891 1.8242-29.855 2.8555-58.727 3.2383-90.516l4.4766-35.195c0.39453-3.1562 0.81641-7.3203 1.2617-11.641 0.71875-6.9727 1.8008-17.496 2.1602-18.816 10.262-15.422 4.2852-32.734-7.4297-40.57-2.5781-1.7148-5.4961-2.9141-8.5547-3.5273-4.1289-4.7383-10.031-7.6445-19.43-4.0078-7.7148 2.9531-12.562 16.32-13.465 18.973l-0.23828 1.4414c0 1.5859 0.035157 4.7539-0.27734 6.4062l-0.875 4.957c-2.125 11.867-4.1289 23.102-4.7773 35.258-0.40625 10.5-0.89844 16.465-1.2969 19.812-7.3672-3.8867-16.57-9.1914-17.711-9.9961-2.5781-1.8125-5.0625-3.6602-7.5-5.4609-10.512-7.7891-20.426-15.145-34.129-17.953l-13.801-2.9297c-30.996-6.6016-36.098-7.5977-37.512-7.5977-1.0195 0-3.0234 0.035156-4.7266-0.3125-4.5-0.69531-10.738 0.32422-17.293 1.5117-1.668 0.30078-2.9648 0.5625-3.5508 0.60156-5.6523 0-13.656 3.1914-19.992 5.9648l-1.0938 0.46875c-2.1953 0.86328-4.5586 1.7383-7.0078 2.6289-8.3867 3.0703-17.902 6.5508-24.648 11.652-2.8672 2.1484-6.1445 5.8672-9.0234 9.168-1.3672 1.5586-3.168 3.6016-4.1172 4.4883-4.2969 0.875-7.4141 5.5664-9.5508 8.7734-0.37109 0.53906-0.67188 1.0078-0.80469 1.1875-14.605 16.141-25.812 32.305-36.012 47.449-3.9375 5.6992-7.2227 15.516-9.9961 24.277-0.55078 1.7266-0.9375 3-1.1172 3.4219-6.5742 13.043-11.293 37.379-14.051 72.336-0.12109 1.4531-0.19141 2.4258-0.21484 2.6406-0.96094 5.0039-1.5234 14.988-1.5234 17.242 0 55.754 29.258 106.03 74.543 128.07 14.449 6.9961 35.473 15.949 56.207 15.949 1.8242 0 3.6719-0.070313 5.4844-0.22656 16.066-1.1992 46.656-7.2969 52.738-8.5312 4.4141-0.86328 10.859-2.9648 16.055-4.6562 3.2031-1.0547 5.832-1.9453 6.4805-2.1016 7.4023 0 16.414-5.9414 25.066-12.359 0.96094-0.71875 1.6797-1.2461 1.8594-1.3789 18.469-8.6406 32.426-19.586 43.43-32.797 6.2383 27.07 16.883 49.957 34.703 62.508 18.938 13.309 44.102 13.906 74.797 1.7266 48.77-19.441 69.887-69.121 79.031-107.36 21.297-89.652 37.512-205.21-26.473-304.29zm-198.83 315.01c-12.938 10.379-41.219 28.02-43.848 29.258l-3.6016 1.0938c-10.465 3.168-34.945 10.559-38.293 10.777-0.37109 0-1.2852 0-2.0039-0.070312-3.1562-6.3945-13.57-5.3281-20.617-4.5977-1.2617 0.13281-2.3281 0.26562-3.0703 0.28906-7.668-3.7422-15.863-6.4922-23.809-9.1445-17.734-5.9297-34.488-11.52-43.824-27.469-9.0703-15.395-20.258-48.719-20.832-51.086l2.543-18.191c1.4141-10.223 2.7461-19.945 2.9766-21.098l0.25391-1.1875c2.3867-10.895 7.9688-36.434 8.8555-38.879l2.4961-4.7539c5.3867-10.262 10.488-19.969 17.305-29.074l1.2461-1.7031c4.7656-6.457 15.926-21.551 17.484-23.051l0.98437-0.55078c0.74219-0.38281 1.7383-0.92578 3.0469-1.7891 14.555-10.441 27.168-18.984 28.945-19.754 2.9648-0.52734 6.9844-2.0391 10.211-3.3828 19.703-5.3398 37.754 0.71875 53.039 7.5586l41.184 18.336c12.289 9.6367 31.934 28.738 35.797 33.527-0.64844 8.4844-0.99609 17.328-1.3438 26.328-0.94922 23.953-1.9219 48.73-8.5938 69.852-1.0547 3.2539-2.1836 6.5742-3.3242 9.9258-3.3594 9.9258-6.8398 20.184-9.0352 30.469-3.3555 15.609-4.5586 18.43-4.1719 18.367z"/>
</svg>
