<?xml version="1.0" encoding="UTF-8"?>
<svg width="1200pt" height="1200pt" version="1.1" viewBox="0 0 1200 1200" xmlns="http://www.w3.org/2000/svg">
 <path d="m482 677.77c14.027-4.1523 29.941-8.8555 36.266-25.02 7.4883-19.141 3.7422-48 0.73047-71.184-0.74219-5.6992-1.4297-11.027-1.8828-15.719-3.5039-36.059-5.0508-73.68-5.0508-121.99 0-6.3242 0.9375-14.699 1.9219-23.543l0.5625-5.1602c3.1562-28.98 8.4258-77.484-31.871-86.27-11.172-2.4375-22.547-2.5195-33.551-2.6055-6.5039-0.046875-12.984-0.085938-19.379-0.63672-3.3594-0.28906-6.8633-0.68359-10.441-1.0781-7.957-0.88672-16.176-1.8125-24.457-1.8125-11.293 0-20.578 1.8125-28.367 5.5312-16.129 7.7148-22.379 22.246-28.441 36.301-2.9023 6.7422-5.6523 13.129-9.4336 18.684-4.5469 6.6953-9.2656 13.297-14.004 19.906-8.5547 11.965-17.41 24.336-25.223 37.285l-1.5234 2.5312c-16.02 26.543-31.164 51.625-42.191 81.266-11.16 30.012-19.465 55.906-26.148 81.504-7.5469 28.969-7.3555 48.742-4.3555 75.098 1.8008 15.863 2.7734 32.137 3.707 47.867 1.0312 17.27 2.0898 35.125 4.2734 52.656 1.332 10.691 3.1562 21.215 4.9805 31.715 3.5039 20.16 6.8047 39.191 6.7188 59.258-0.12109 27.516 2.3867 55.152 4.9805 81.109 3.168 31.801 7.1875 39.863 36.781 39.863 2.4961 0 5.2188-0.046875 8.1719-0.12109 10.094-0.26562 20.051 0.12109 30 0.49219 14.039 0.51562 28.055 1.0195 42.371-0.097657 8.6055-0.70703 20.062 1.0078 32.375 2.7969 12.023 1.7539 24.469 3.5508 36.203 3.5508h0.13281c9.9961 0 39.742-0.13281 47.039-30.926 3.9258-16.5 3.2773-34.379 2.6523-51.684-0.21484-6.1211-0.44531-12.156-0.44531-18 0-33.301-5.1367-63.59-11.844-99.73-2.2305-11.988-3.2266-24.504-4.1875-36.613-0.53906-6.7422-1.0781-13.477-1.8125-20.172-0.49219-4.4648-1.5859-9.5273-2.7344-14.82-2.3633-10.848-5.0273-23.148-1.9688-31.309 4.3672-11.508 15.98-14.953 29.445-18.922z"/>
 <path d="m511.39 212.4c-9.4922-3.793-20.902-5.6406-34.906-5.6406-9.5391 0-18.684 0.88672-24.926 1.6094-6.4688 0-16.848 0.85156-23.723 1.4141-2.5781 0.21484-4.4883 0.37109-5.0742 0.38281l-2.543-0.22656c-2.1016-0.52734-5.0039-0.83984-7.0664 0.23828-3.9609-2.0273-8.4375-4.3086-13.453-4.3086-6.3125 0-11.773 3.6133-16.5 11.219-3.5273 7.0664-2.0625 14.629-1.1055 19.633 0.22656 1.1641 0.45703 2.1367 0.46875 2.8438l0.20312 1.5352c0.89844 3.6016 3.4805 13.895 3.8516 17.734l-0.14453 0.42188c-2.0273 6.0977 0.98438 12.277 3.3828 17.258 0.69531 1.4297 1.3789 2.8086 1.8594 4.0938 0.43359 2.1836 1.8359 4.5586 4.1758 7.1289 4.957 13.535 21.551 16.523 31.621 18.348l3.2773 0.61328c3.5508 0.58984 7.6797 0.875 12.59 0.875 4.6211 0 9.2539-0.25391 13.285-0.48047 2.9141-0.16797 5.4961-0.3125 7.5-0.3125 37.453 0 58.789-9.4062 63.492-28.223 2.8164-14.098 11.383-56.961-16.266-66.156z"/>
 <path d="m549.97 561.77c0 30.434 0 48.793 1.8008 75.602 0 5.4375 2.4961 12.504 7.9336 15.742 1.7656 1.4297 4.2227 2.6055 6.2148 3.4062 7.1172 14.281 24.672 20.711 39.613 20.711 16.586 0 30.324-7.1055 36.961-19.5 4.5977-10.738 4.5977-32.461 4.1992-53.773-0.058593-3.1445-0.10937-5.8672-0.12109-8.2578-0.78125-17.242-2.5938-34.32-4.3555-50.832-2.2812-21.48-4.6445-43.68-4.6445-65.902 0-12.395 0.60156-25.105 1.1875-37.391 1.1992-25.367 2.4492-51.613-1.2852-78.887-4.1523-22.883-26.305-29.508-44.102-34.836l-3.2031-0.69531c-0.71875 0-1.6211-0.12109-1.9453-0.13281l-1.9922-0.55078c-1.332-0.38281-2.6641-0.75781-3.1797-0.80469-5.1836-1.7539-14.242 0.10938-18.191 1.2461-6.4922-1.4297-12.504 0.86328-16.824 6.3828-6.9844 8.9531-8.2812 24.59-7.0664 31.105 0.058594 5.0625 0.83984 11.352 1.3672 15.562 0.21484 1.7266 0.39453 3.0469 0.42188 3.5898 0 0.89844-0.16797 1.9453-0.3125 3.0352-0.43359 3.2031-0.97266 7.1055 0.33594 10.801 0.20312 5.8555 1.668 14.797 1.7773 14.965 0 18.227 1.3789 36.637 2.7227 54.457 1.3203 17.578 2.6875 35.773 2.7344 54.289 0.82812 6.625 0.40625 12.898-0.035156 19.547-0.46875 6.9219-0.9375 14.086-0.011719 21.121z"/>
 <path d="m802.54 211.68c-1.9688-3.9258-7.0781-10.801-7.1992-10.801-11.23-22.453-35.652-25.332-55.68-25.332-4.9219 0-9.8398 0.16797-14.605 0.33594-5.9531 0.20313-11.629 0.39453-16.754 0.23828-1.7656-0.058594-3.4922-0.097656-5.1719-0.097656-20.016 0-46.57 4.2109-47.184 40.32-5.0039 12.059-4.7266 25.02 0.74219 35.977 0.33594 14.375 1.8711 41.617 31.633 45.457 3.7188 0.48047 7.5586 0.69531 11.496 0.69531 14.652 0 30.238-2.9531 45.312-5.8086 4.2969-0.81641 8.543-1.6211 12.695-2.3398 14.23 2.0273 24.023 0.96094 34.066-4.6797 1.7656-1.4141 3-3.0703 4.4023-5.0273 2.4375-2.2188 4.4141-4.957 6.0117-8.3164 2.7109-5.6758 3.5625-13.535 2.6406-23.734l-0.50391-2.7734c-0.25391-1.9219-0.5625-3.8047-0.86328-5.1484-0.3125-2.9883-0.39453-5.8438-0.43359-7.3906 1.9258-6.4648 1.8086-14.531-0.60547-21.574z"/>
 <path d="m738.39 687.57 0.52734 0.67188h1.1641c0.44531 3.2031 0.69531 7.5 0.69531 12.121v2.4844l2.0039 2.0039c0.75781 9.6953 1.1641 19.02 1.5703 28.164 0.46875 10.465 0.92578 20.676 2.0039 31.812 1.332 5.3047 1.6211 17.641 1.6797 21.121-6.625 48.035-14.879 107.82-1.7148 162.37 5.9531 25.754 14.039 51.887 42 63.816 9.0859 2.5938 19.008 3.4336 28.621 4.2461 4.5234 0.38281 9.1094 0.76953 13.453 1.3086 3.6719 0.61328 7.4531 1.332 11.305 2.0625 12.168 2.3047 24.758 4.7031 37.754 4.7031 8.7617 0 16.57-1.0938 23.891-3.3477l1.3203-0.58984c2.5312-1.5117 5.0625-3.1797 7.6445-4.8594 6.3242-4.1406 12.863-8.4258 19.246-10.598 2.7461-0.55078 5.4961-0.92578 8.1836-1.2852 6.2539-0.85156 12.73-1.7383 18.516-4.6328 22.234-11.125 18.012-37.906 15.227-55.621-0.45703-2.9141-0.88672-5.6289-1.1172-7.3438v-9c0-1.5352 0.63672-4.2734 1.2109-6.2148 6.1445-8.5312 5.3281-19.414 4.5977-29.062-0.20312-2.7617-0.40625-5.4375-0.40625-7.9219 0-5.0742-0.81641-14.062-1.3555-20.016-0.23828-2.5781-0.42187-4.5586-0.44531-5.1836 0-42.035-0.86328-70.117-1.9062-101.45 3.625-1.8711 6.2891-4.957 8.1602-7.1055 0.19141-0.22656 0.37109-0.44531 0.55078-0.64844h3.9961v-7.8008c0-3.7422 0-7.9453-1.9336-12.422-0.32422-2.2422-1.1758-5.0508-1.7891-6.7578-1.5859-7.9219-4.5352-19.969-5.2812-22.98-0.046875-4.0664-0.53906-12.66-3.6016-17.652v-51c3.7695-14.473-2.375-26.773-7.8242-37.68-6.3359-12.66-9.793-19.98-10.176-20.723v-1.4141l-0.63672-1.2617c-0.48047-0.94922-0.9375-2.1836-1.4531-3.5273-1.5352-4.0195-3.457-9.0117-6.8633-12.434l-1.5703-1.1406c-2.0898-1.043-4.3086-1.5977-6.0977-2.0391-0.23828-0.058594-0.46875-0.10938-0.68359-0.16797l-0.97266-1.668c-3.7578-7.8594-9.2383-20.184-9.2773-20.258-18.602-40.586-39.875-81.949-64.883-126.18-1.8711-3.7422-3.7422-7.6914-5.6523-11.734-12.742-26.941-28.621-60.469-62.797-65.16-16.43-2.2695-33.875-2.293-57.035 0.011719-6.1328 0.61328-13.812-0.20312-22.066-1.043-14.102-1.4531-28.934-2.1719-37.859 1.2969-22.02 8.6172-19.465 38.711-17.594 60.684 0.43359 5.0273 0.82812 9.6016 0.82812 13.535 1.6445 31.285 4.7656 60.742 8.0625 91.945l0.98438 9.3008c1.7539 13.969 3.5508 28.414 3.5508 42.445v1.4141l0.63672 1.2734c0.52734 1.0547 1.1641 3.3359 1.1641 8.1133l0.17969 1.4531c1.1992 4.7891 1.6211 16.754 1.6211 25.547 0 3.8633 0.75781 9 1.3203 12.742 0.23828 1.6094 0.44531 2.9023 0.48047 3.457v20.398h1.8008c0.023438 16.945 0.21484 18.121 2.2578 26.652l1.3789 5.9414c0.16797 2.2305 1.5 6.9258 12.574 12.793v0.69531z"/>
</svg>
