<?xml version="1.0" encoding="UTF-8"?>
<svg width="1200pt" height="1200pt" version="1.1" viewBox="0 0 1200 1200" xmlns="http://www.w3.org/2000/svg">
 <path d="m238.18 688.18 2.6055 7.0078c7.9062 25.32 18.996 58.141 34.598 87.371 27.254 52.703 73.188 79.906 121.8 108.71l2.7852 1.6562c65.363 40.043 122.68 63.191 180.39 72.805 24.145 3.8047 44.449 6.3477 65.184 6.3477 12.324 0 24-0.89844 36.109-2.8203 17.855-4.1289 31.668-10.273 46.273-16.789 5.0742-2.2695 10.297-4.5977 15.695-6.8398 6.1094-2.293 12.227-4.2461 18.191-6.168 8.2422-2.6523 16.031-5.1484 23.664-8.4258 30.73-14.461 57.121-37.094 82.645-58.98l1.8359-1.6094c4.1992-4.1992 9.2773-8.0039 14.664-12.035 5.4727-4.1055 11.137-8.3516 15.805-13.031 28.223-26.555 55.031-69.805 71.809-115.95 13.008-40.668 17.102-84.289 12.863-137.16-0.35938-6.625-0.58984-13.488-0.80469-20.473-0.83984-26.844-1.8008-57.289-12.109-83.762-15.047-43.234-33.238-88.02-64.43-122.87-11.555-11.555-22.164-18.742-34.43-27.07-3.5742-2.4258-7.332-4.9805-10.945-7.4766l-3.625-3.0469c-33.254-28.02-61.969-52.234-106.43-64.68-25.766-8.207-51.781-14.016-79.32-20.184-14.844-3.3242-29.93-6.6953-45.254-10.523-7.9062-1.9805-18.816-1.9805-28.453-1.9805l-10.098 0.003906-0.058594-0.058593c-1.3555-1.332-4.1289-2.7227-8.9023-1.7148l-0.42188-0.035156-0.28906 0.085937-0.023438-0.070313v0.085938l-0.78125 0.22656c-0.023437 0.011719-0.046875 0.011719-0.058594 0.023438l-0.023437 0.011719c-1.5117 0.45703-2.9766 1.0312-3.9844 1.4531h-4.1406c-2.5195 0-4.6562 1.0781-6.0977 2.1016-27.109 3.9727-49.934 9.7422-72.191 18.336-6.8047 3.4062-24.109 10.344-23.93 10.344-41.605 9.9102-75.324 23.281-106.18 42.145-15.012 9.3828-28.234 22.621-38.363 32.797-19.871 15.898-35.676 30.504-48.047 49.957-6.7188 10.066-10.777 21.359-14.723 32.293-2.6992 7.4648-5.4727 15.18-9.2539 22.812-1.4141 3.5391-3.5508 7.2617-5.8086 11.195-3.0469 5.293-6.4922 11.293-8.4961 17.398-5.5312 12.434-7.9688 25.512-10.332 38.172-0.83984 4.5352-1.6797 9.0117-2.7344 13.824-0.48047 3.3945-1.6562 8.6992-3.0352 15.012-3.875 17.652-9.1797 41.832-7.7891 58.391 3.3984 35.824 13.238 62.402 24.637 93.184zm23.27-105.53c2.7852-19.523 9.2266-49.367 19.738-91.477 1.2109-6.0234 8.0039-17.328 11.16-22.188 8.6172-6.6484 13.824-17.566 18.445-27.254 2.4492-5.1367 4.7656-9.9961 7.4023-13.355 19.297-30.875 44.258-57.73 70.402-75.695 13.441-9.6133 44.93-28.598 62.195-35.508 10.043-5.0156 32.641-10.273 33.168-10.402l4.5-1.2969c23.102-6.625 44.914-12.875 69.457-12.875l1.8945-0.3125c2.8203-0.94922 6.1328-2.3516 9.4336-3.7695 3-1.2852 6-2.5664 8.5664-3.4336l1.3438-0.45703 1.0078-1.0078c0.5625-0.5625 1.2109-1.332 1.8594-2.1719l0.16797 0.12109c2.6992-3.0352 8.4961-4.6445 16.766-4.6445 16.246 0 37.621 6.0703 50.387 9.6953 3.2148 0.91016 5.9023 1.6797 7.9805 2.1953 9.2539 2.1719 18.805 4.0195 28.465 5.8906 21.898 4.2344 44.543 8.6055 64.02 17.125 37.789 17.172 50.699 27.805 78.961 51.109l2.4258 1.9922c5.2812 4.5234 10.871 8.7461 16.391 12.926 7.7266 5.8203 15.012 11.316 21.07 17.363 20.113 20.125 30.551 45.863 41.605 73.117l3.8633 9.4688c1.3789 3.457 3.2539 6.9258 5.1836 10.477 2.9883 5.4961 6.0859 11.184 7.0664 17.09l0.34766 1.2461c5.6875 14.207 8.5664 32.832 8.5938 55.848 5.293 65.34 7.4023 129-24.539 189.34-17.328 33.086-38.52 51.625-65.352 75.086l-8.6289 7.5859c-9.1914 7.2109-15.758 12.996-21.707 18.238-10.309 9.0703-18.457 16.246-35.52 26.496-9.0586 6.0352-18.07 9.0352-28.512 12.516-7.1992 2.3984-14.652 4.8828-22.598 8.4961-5.293 2.125-10.609 4.5469-15.996 7.0078-12.695 5.8086-25.801 11.809-40.414 14.258-27.312 4.8242-51.574 1.8594-82.367-3.5742-5.0156-1.0078-11.207-1.4648-17.762-1.957-5.7109-0.42188-11.578-0.83984-15.973-1.5352-36.562-10.453-76.379-31.008-113.8-51.602-6.1797-3.6484-12.504-7.2617-18.852-10.906-33.863-19.355-68.867-39.371-91.02-70.367-19.586-25.598-30.336-57.18-40.754-87.73-1.7148-5.0156-3.4219-10.031-5.1719-15.023-2.3984-6.8047-5.1602-13.691-7.9453-20.688-9.6289-24.117-19.602-49.078-16.961-75.453z"/>
 <path d="m469.18 525.72c0.32422 4.1523 1.8477 8.8086 2.0391 9.3828l0.45703 1.332 1.6211 1.6211c0.57422 1.6445 1.7266 4.0195 4.0195 7.4648l1.7773 2.6758 0.76953 0.035157c4.0781 4.0938 14.016 9.1562 15.961 10.129l3.3125 0.98438c4.3906 1.1289 8.543 2.1953 13.211 2.1953 2.2812 0 4.5117-0.25391 6.7812-0.76953 3.1328-0.22656 6.2266-1.6211 8.7461-2.7617 0.82812-0.38281 1.5703-0.74219 1.2344-0.80469h2.4844l1.7539-1.7539c1.5352-1.5352 2.9023-2.8203 4.1406-3.9727 4.6328-4.3555 8.293-7.7891 11.723-16.379 2.0391-6.1445 2.1016-15.266 2.1016-16.285l0.035156-2.9531 1.7656-1.7539v-2.4961c0-7.4141 0-15.816-4.2344-24.289l-1.1406-1.5586c-0.91016-0.92578-4.1641-5.0508-6.4453-8.0742-2.7461-4.1289-6.457-8.7461-12.215-11.125-4.1172-2.6875-7.6211-4.1523-14.375-4.1523h-7.1992c-6.0117 0-12.227 0-17.09 2.4375l-1.5469 1.1172c-0.85156 0.85156-3.9375 3.0859-7.1992 5.3984-3.1328 3.1211-5.293 5.5781-6.3711 7.9688-9.9492 8.4961-13.512 17.676-11.605 28.68 0.015625 5.6367 3.832 14.254 5.4883 17.707z"/>
 <path d="m708.62 461.46c-9.0859-3.6016-24.371-0.67188-31.535 5.3516-3.7695 1.6328-7.043 4.6211-9.5039 6.8633-0.46875 0.43359-0.88672 0.82812-1.2734 1.1641l-4.6328-0.49219v6c-2.375 2.3633-4.3672 6.2148-4.7539 6.9727l-2.3984 4.5352v1.4141c-0.097656 0.50391-0.67188 1.9922-1.1992 3.0352l-0.63672 1.2734v8.6172c0 3.3828 1.1055 7.5469 1.7266 9.6484-0.75781 9.9258 2.5078 19.246 9.4805 27.035 9.1445 10.211 23.867 16.547 38.449 16.547h0.011719c11.473 0 21.77-3.9844 29.258-11.484 14.797-16.906 23.484-44.543 11.281-64.883-3.2891-4.9219-9.168-11.762-18.516-16.441-3.5742-1.7891-9.5273-3.4062-11.473-3.9102-1.1797-0.50391-2.5586-0.91016-4.2852-1.2461z"/>
 <path d="m529.11 651.39c-6.4922 0-16.859 5.0273-17.914 5.6523-21.324 6.3945-35.039 33.336-33.086 52.547 0 10.105 3.8047 16.477 7.4414 21.984 1.0312 4.7383 5.0508 9.2031 6.9258 11.062 1.7891 1.7891 7.1172 5.8555 9.0977 7.3438 6.8633 7.8711 17.629 12.551 28.957 12.551 6.4219 0 12.562-1.5703 16.68-4.0547 6.0586-2.0156 12.613-7.6211 16.738-14.039 2.1367-2.1133 5.5078-7.1406 6.4219-8.5312 5.1836-9.3242 20.953-37.715 8.8906-61.801-5.2812-8.8086-13.895-15.504-25.859-20.281-1.8594-0.9375-4.3203-1.5586-7.0664-1.8477-5.9844-1.4375-12.777-1.5195-17.227-0.58594z"/>
 <path d="m664.61 729.14c6.2148 3.7305 12.816 5.5312 20.219 5.5312 3.4219 0 7.043-0.39453 9.875-1.0781 3.9258 0 9.4336-2.3164 12.238-3.6367 6.0234-0.22656 16.129-1.6562 16.57-1.7656 13.332 0 28.043-14.09 30.887-25.598 0.85156-1.7891 1.332-3.2148 1.8008-4.6328 0.37109-1.1055 0.73047-2.2188 1.4648-3.6953l0.63672-1.2617v-12.215c0-4.8242-2.2188-11.902-7.1641-16.848-1.0938-1.0938-3.3711-4.5703-3.6367-4.7539v-1.8125l-1.0078-1.5117c-4.6914-7.0195-15.047-12.852-22.727-14.93-4.1406-1.9062-10.645-3.5742-11.398-3.7578l-0.30078 0.88672c-9.457-1.7656-18.266-0.82812-27.254 3.168-0.76953 0.38281-1.6562 0.78125-2.5664 1.1875-3.5898 1.6094-8.0625 3.6016-11.578 7.1289l-5.4727 5.4609c-3.6484 3.6602-7.7539 7.7656-10.066 13.969-1.5 2.3633-2.3164 5.9766-2.4258 10.738-5.543 15.668-5.3867 36.5 11.906 49.426z"/>
 <path d="m493.99 391.55c1.5703-0.14453 3.1211-0.66016 4.6211-1.1641 0.011719 0 0.035157-0.011718 0.046875-0.011718 3.3711 2.6758 6.7305 3.9844 10.188 3.9844 2.543 0 6.3711-0.78125 10.105-4.5 2.207-2.207 3.6719-5.6523 4.5352-10.754 2.1133-1.2109 3.6484-2.4961 4.4531-3.6484 1.8828-1.8828 2.9023-4.8008 3.0469-8.7227 5.6289-5.3281 15.023-15.336 16.727-24.336 0-3.8867-2.0508-7.7539-6.0977-11.508-2.1484-3.1445-4.7656-4.8945-7.8125-5.2305-16.055-4.6328-41.207 13.836-48.289 19.738l-3.0469 0.22656c-7.6562 2.1953-13.523 8.4844-15.684 16.824-2.2695 8.7617-0.011718 17.879 5.8906 23.785 5.3086 5.3281 12.879 7.2734 21.316 5.3164z"/>
 <path d="m668.33 395.07c1.3086 0.26562 2.7227 0.39453 4.1875 0.39453 11.137 0 25.129-7.7266 29.352-16.211 2.4492-4.9062 1.2734-11.762-1.5234-16.922 0.38281-0.43359 0.79297-0.88672 1.2344-1.3789 5.5781-6.3359 13.188-14.977 13.512-23.41l8.1133 1.2852-9.3711-7.5234c-2.6523-4.5586-6.168-6.5742-9.0703-7.4531-0.88672-0.60156-1.4883-0.97266-1.4883-0.97266l-0.52734 0.74219 0.023437-0.19141c-12.758-2.0742-30.324 14.293-34.621 27.574-9.7422 3-16.223 13.188-16.922 22.391-0.83984 10.949 5.6758 19.242 17.102 21.676z"/>
 <path d="m807.21 530.04c3.4219 8.0625 11.555 14.027 20.016 14.027 5.4375 0 10.512-2.4961 14.484-7.2734 5.293-7.0781 4.3438-16.523 3.5156-24.875-0.25391-2.6523-0.52734-5.2188-0.52734-7.5234v-1.4141l-5.5781-11.16c-0.45703-2.2578-1.6797-4.0781-2.5664-5.1719l-0.57422-1.1875c-0.92578-1.9805-1.957-4.1172-3.168-5.9883l-3.6484 2.3516 3.5625-2.4727c-1.0078-1.5469-2.5938-3.6836-5.0039-5.125-2.6406-2.0391-6.3945-2.6523-9.1328-2.7969l-7.7773-3.8867 2.7344 4.2344c-2.1719 0.32422-4.2461 1.0078-6.3359 2.0508l-1.5469 1.1172c-4.3086 4.3086-6.3828 9.9844-8.2695 15.625-1.6445 2.1133-2.1953 4.2852-2.3867 6.0469-2.832 3.625-4.5586 8.2695-4.8125 13.078-0.33594 6.4062 1.9688 12.422 6.4688 16.934 0.81641 0.84375 2.8203 2.8477 10.547 3.4102z"/>
 <path d="m375.37 539.53c11.902 0 22.883-9.2031 28.379-14.711 3.7812-3.793 9.457-9.4805 7.0781-17.953-0.26562-2.2812-1.332-4.5352-2.5547-6.2266-3.4805-8.9648-15.73-14.762-25.141-11.258h-3.4453l-0.21484 1.9062c-0.49219 0.30078-0.97266 0.61328-1.4414 0.98438-0.30078 0.20312-0.57422 0.40625-0.81641 0.625-9.5391 2.1016-20.258 7.5-23.723 16.98-1.7773 4.8477-2.2812 12.551 5.4375 21.828 4.4062 5.1133 10.082 7.8242 16.441 7.8242z"/>
 <path d="m841.11 655.6c0-6.1094-6.1328-9.6016-16.801-9.6016l-0.046876 0.39453c-4.3438 0.28906-7.9453 2.3047-9.5742 4.957-1.8711 1.8711-3.0234 5.0508-3.4219 9.4805l-1.9805 1.3203c-1.8711 1.8594-3.5039 4.6445-4.2852 6.1094-7.1875 7.7383-10.512 20.352-7.7539 29.797 2.1016 7.2227 7.4141 12.121 15.289 13.859 1.2734 0.21484 2.5547 0.3125 3.8281 0.3125 11.93 0 22.777-8.7969 28.391-16.391 4.6562-4.6445 6.6836-13.859 7.1641-16.836v-1.8008c0-1.3906-0.3125-2.7852-0.85156-4.5859 0.57422-1.5352 0.85156-3 0.85156-4.4141l-0.19141-1.4766c-1.1055-4.3555-4.6328-7.8008-10.621-10.32z"/>
 <path d="m566.9 795.39c-5.8086 0-10.414 0-15.289 2.4375-0.81641 0.40625-1.7539 0.81641-2.6758 1.2344-3.6719 1.6328-7.4297 3.3125-8.9531 6.4219-1.5977 1.7539-2.9766 3.6602-4.1172 5.6406-2.9297 1.8594-5.1719 3.6484-5.6172 4.0312-7.9062 7.9062-13.934 22.105-9.4922 32.832 1.7891 4.332 6.8984 11.617 20.93 11.617 12.91 0 32.363-10.176 34.801-27.602 0-0.82812-0.035156-1.6797-0.12109-2.5664 8.3867-1.8477 17.734-4.5117 21.395-11.723 1.4023-2.7344 2.4961-7.2734-0.53906-14.004-3.0117-5.0039-6.9492-7.5469-11.734-7.5469h-0.011719v-0.75781l-18.574-0.003906z"/>
 <path d="m385.15 682.31c-3.4062 1.9688-7.668 4.8359-9.707 6.8516-2.1133 2.125-2.9648 4.8711-3.3008 7.2852-4.6914 2.1602-9.3008 5.3281-12.875 8.9141l-1.2227 1.7539c-4.6445 10.211-2.375 17.363 0.32422 21.574 4.5117 7.0078 13.715 11.195 24.613 11.195 3.1211 0 6.1445-0.35937 8.9766-1.0664 6.8984-1.7266 12.887-5.3398 17.832-10.754 0.40625-0.12109 0.86328-0.27734 1.3906-0.50391 5.6992-2.8438 10.512-10.246 10.512-16.164 0-1.3789-0.32422-2.6406-0.78125-3.7422 0.17969-0.53906 0.33594-1.0664 0.46875-1.5586 1.0312-3.0586 1.0938-7.043 0.16797-12.156 1.9805-3.4805 2.6172-6.9609 1.9219-10.391-0.60156-6.1211-7.4648-10.211-10.488-11.723l-0.74219 1.0195c-7.832-2.1172-18.379 1.6172-27.09 9.4648z"/>
 <path d="m747.67 772.05-1.4766-0.097657c-2.8086 0-5.6055 1.0195-7.3438 2.4609-1.0547 0.51562-2.0508 1.2227-3 2.0039-1.7891-0.49219-3.6719-0.74219-5.5664-0.74219l-4.9805-0.085938c-4.8711 0-9.3711 2.1836-9.875 2.4375-5.125 2.5664-7.6328 7.1875-9.5742 11.062-2.0391 2.7227-2.6055 6.5625-2.7227 9.2891-4.7266 12-9.8516 28.547-3.1914 38.398 2.1367 3.1445 6.3711 6.8867 14.52 6.8867 1.3789 0 2.8672-0.10938 4.3086-0.3125 13.008-1.4531 24.672-11.363 29.867-25.344 0.9375-1.4883 1.7266-3.0977 2.3398-4.7891 7.0664-6.2539 12.816-16.055 10.883-25.246-0.13281-1.6211-0.625-2.9648-1.0078-3.875l-1.0312 0.43359 1.0664-0.875-1.4297-2.1836c-2.1016-3.2148-5.6406-8.6172-11.785-9.4219z"/>
</svg>
