<?xml version="1.0" encoding="UTF-8"?>
<svg width="1200pt" height="1200pt" version="1.1" viewBox="0 0 1200 1200" xmlns="http://www.w3.org/2000/svg">
 <path d="m316.62 809.84c-1.1875 15.07 1.332 29.977 3.7578 44.398 1.6445 9.7305 3.1914 18.926 3.707 28.188 0.13281 2.4492 0.058593 5.4961 0 8.8438-0.27734 13.906-0.66016 32.953 11.23 40.43 2.8438 1.7891 6.2383 2.6992 10.117 2.6992 7.2109 0 14.809-3.1211 20.617-5.8203 12.742-5.9414 24.109-14.074 35.074-21.938 8.6289-6.1914 17.555-12.574 26.879-17.641 9.4219-5.125 19.559-9.0977 30.312-13.285 13.992-5.4609 28.453-11.113 41.09-19.535 9.7422-6.4922 29.23-17.004 33.562-18.781l1.332-0.43359c5.8789-2.3398 11.953-4.7031 18.012-7.0547 6.4219-2.4844 12.84-4.9805 19.055-7.4766l0.67187 0.25391c4.0195 1.5234 7.8125 2.9766 11.797 5.2695 15.926 6.3711 31.402 13.453 46.379 20.305 10.379 4.7539 20.629 9.4336 30.758 13.777 18.203 8.2695 51.551 22.609 56.977 24.926 2.6172 1.8594 6.1797 2.4375 8.8203 2.5781 14.594 7.332 40.078 20.93 41.004 21.324 1.668 0.55078 3.707 1.8242 5.8789 3.1797 3.5391 2.207 7.5586 4.7031 12.574 5.9531l1.4531 0.17969c2.9414 0 7.2109-0.82812 9.9258-1.4297 11.23 6.168 23.953 12.324 35.762 12.324 11.184 0 19.68-5.5938 24.48-16.008 4.6562-9.3242 5.4961-23.113 2.6055-43.273 8.0625-13.859 8.2695-34.738 8.4258-51.672 0.046875-5.1719 0.085938-9.8047 0.40625-13.945l-0.011718-40.945c0.50391-6.4805 0.70703-12.121 0.81641-17.293 0.55078-13.801 0.80469-27.613 0.91016-41.004l0.085938-1.5469c0-7.6562 1.7031-15.562 3.5156-23.953 1.4023-6.4922 2.8438-13.211 3.6719-20.699 0.83984-14.281-0.22656-29.004-1.2617-43.246-1.2109-16.656-2.4727-33.863-0.60156-49.801 2.5078-16.32 3.3008-31.668 4.1289-47.891 0.37109-7.3438 0.75781-14.891 1.3438-23.219 0-4.2969 0.44531-8.6055 0.86328-12.898 0.48047-4.7031 0.9375-9.3945 0.9375-14.102v-16.199c0-3.8047-0.75781-9.6484-1.2969-13.895-0.25391-1.9336-0.46875-3.4922-0.52734-4.7266-5.0156-48.422-16.402-98.363-65.062-135.34-12.59-10.789-34.332-19.008-51.168-19.43-4.3789-1.8125-8.6641-1.8125-13.945-1.8125-4.3555 0-10.512 0.99609-13.621 1.5586-7.0664-3.0234-14.617-3.5742-23.09-1.5586h-60.492c-8.2812 0-29.16-3.3125-28.715-3.2891-5.3633-1.7891-10.883-3.6367-16.801-3.875-4.5977-1.7383-10.68-1.8477-11.102-1.7539-5.9141-0.98438-11.844-0.94922-17.531-0.97266-4.6562-0.27734-9.2383-0.51562-13.223-0.67188l-10.297-0.52734-15.156-0.86328-2.2578-0.14453c-2.2305-0.14453-4.4648-0.27734-6.793-0.48047l-1.6055 0.003906v0.023437c-0.058594 0-0.15625-0.011718-0.20312-0.011718v-0.011719 0.011719c-0.046875 0-0.15625-0.011719-0.19141-0.011719v-0.011719 0.011719c-3.9102 0.035156-8.8438 0.37109-13.656 2.4844-4.4648-1.3906-8.9141-2.5078-13.656-2.5078h-14.398v0.16797c-4.5977 0.34766-10.355 1.2109-12.613 1.5703-6.5508-0.97266-15.516-0.74219-23.363-0.27734-3.2539 0.17969-6.3008 0.34766-9.0234 0.34766l-12.73-0.12109c-14.352 0-29.461 1.2344-42.758 10.105-54.227 35.594-59.734 104.91-64.152 160.63-0.50391 6.2891-0.99609 12.457-1.5352 18.445-1.8242 20.062-1.8242 25.836-1.8242 47.328 0 12.156-0.58984 24.266-1.1523 35.977-0.85156 17.578-1.7266 35.746-0.64844 54.023 0 4.4766 0.42188 8.9648 0.86328 13.656 0.45703 4.7383 0.9375 9.707 0.9375 15.156l0.011719 35.652c-0.34766 5.9297-0.76953 11.93-1.1875 17.953-1.7539 25.152-3.5508 51.168-0.57422 74.953 2.0156 16.176 0.68359 28.273-0.875 42.289-0.58203 5.1797-1.1797 10.543-1.6484 16.398zm147.06-226.84c5.3867-5.8906 16.391-16.934 18.695-18.457 9.4062-4.7148 14.746-3.8633 25.777 4.8008 6.3125 4.9688 11.305 12.371 16.586 20.219 8.0898 12 16.441 24.406 30.781 29.688 16.969 6.1914 45.539-23.891 75.336-58.379 3.793-4.3789 7.0195-8.1367 9.4688-10.777 12.047-13.117 23.746-26.797 35.051-40.043 12.637-14.785 25.715-30.086 39.203-44.473 4.043-4.3086 8.1719-9.4688 12.422-14.762 11.027-13.777 23.52-29.398 35.438-29.398 5.9141 0 12.145 3.9961 18.527 11.879 3.3008 4.0938 13.355 16.512-20.34 47.062-5.3516 4.8359-10.668 9.1562-14.965 12.637l-4.4414 3.6367c-22.922 19.117-44.93 41.258-66.203 62.699l-12.215 12.266c-3.8633 3.8633-7.8594 7.8711-10.078 12.324l-0.61328 0.94922v1.4023c-0.085937 0.51562-0.66016 1.9922-1.1875 3.0586l-0.63672 1.2617v0.38281c-0.42188 0.60156-1.1875 1.5234-1.8477 2.1836-4.2852 4.2852-8.6523 8.5781-13.031 12.887-17.762 17.484-36.145 35.555-51.758 55.5-7.7148 7.7266-11.746 15.445-15.527 24.961-0.58984 1.1758-0.88672 2.4102-1.0312 3.6016-2.7461 1.8477-5.4961 3.6953-8.2188 5.5781-7.7539-10.273-15.574-19.836-21.359-26.734-3.8867-6.3008-9.3477-12.035-13.332-15.973l-14.902-17.305c-7.7383-8.9531-15.48-17.914-22.645-26.305-2.0039-3.1562-4.8477-6.3711-7.1289-8.9648-1.4414-1.6445-2.7344-3.0117-3.2539-3.875l-0.78125-1.5703-2.5781-1.6094c-2.7891-3.3086-5.9219-6.9062-9.2109-10.352z"/>
</svg>
