<?xml version="1.0" encoding="UTF-8"?>
<svg width="1200pt" height="1200pt" version="1.1" viewBox="0 0 1200 1200" xmlns="http://www.w3.org/2000/svg">
 <path d="m947.7 803.83c-4.2227-21.828-6.7305-36.336-5.3984-58.598l0.23828-3.5742c1.0078-15.059 2.5195-37.824-9.8398-48.887-11.305-10.129-30.613-11.426-46.152-11.426-6.3125 0-12.539 0.25391-18.191 0.49219-8.125 0.33594-13.766 0.70703-20.531-1.2109-3.3242-0.96094-7.1172-2.0273-11.555-2.0273-1.6328 0-5.9648-2.3984-6.5391-2.4375l-1.7656-4.1641h-2.4961c-0.92578 0-1.9062 2.3281-2.9414 2.2695-1.3672-0.085937-2.7969 1.0312-4.2461 1.0312-3.9727 0-9.7422 1.1406-14.688 5.6758-3.168 1.957-11.594 8.3281-11.594 14.125v0.3125 7.1992 39.602 14.398c0 6.6484 0.25391 13.332 0.50391 20.039 0.57422 15.613 1.1875 31.766-1.6562 46.992-2.3281 12.48-3.0703 14.172-10.152 15.949-2.3516 0.21484-12.109-0.22656-19.633-0.53906-1.8242-0.085938-3.5508-0.15625-5.0742-0.21484v-4.8398c0-20.785-1.8828-40.586-3.7188-59.734-1.2227-12.781-2.4844-26.004-3.1914-39.266 0-18.238-4.957-51.672-5.1016-52.199l0.035157-8.5078c0.085937-7.6445 0.16797-15.539-1.3789-24.875-1.7266-10.273-3.2383-34.656-3.2656-37.234-1.1406-15.961-0.74219-29.965-0.32422-44.797 0.23828-8.3867 0.48047-17.125 0.45703-27.312-1.9922-21.852-3.5156-40.055-3.5156-58.859 0-2.4961 0.085937-5.3633 0.16797-8.5078 0.67188-25.188 1.7891-67.332-30.695-69.781-8.7852-0.66016-17.34-0.011719-26.148 0.69531-3.2656 0.26562-6.5625 0.52734-9.9258 0.71875-4.3789 0.25391-9.9844-0.32422-15.996-0.91016-6.2148-0.61328-12.625-1.2344-18.973-1.2344-8.8789 0-21.562 1.0664-29.137 10.273-8.1484 9.9258-6.875 25.969-5.8672 38.844 0.3125 3.6914 0.58984 7.1484 0.58984 10.086 0 16.824 1.6562 33.238 3.3828 50.605 1.0781 10.656 2.1719 21.48 2.8438 32.195 0 5.3164 2.1719 14.184 2.8789 16.98 0.070312 10.922 1.5977 26.914 2.4258 35.594 0.25391 2.6641 0.43359 4.5117 0.45703 5.0156v34.199c0 6.9844-0.875 17.449-0.89844 18 0 16.883 0.89844 48 0.89844 51.816v0.38281 52.199c0 5.8789 0.81641 12.684 1.7031 19.883 1.3906 11.52 2.9766 24.59 0.5625 32.449-1.3555 4.4648-5.4727 10.379-25.273 10.379-4.1289 0-8.1367-0.23828-11.664-0.43359l-1.5234-0.085937c-19.223-1.0781-20.941-16.883-21.48-42.793-0.097656-4.4414-0.19141-8.7969-0.46875-12.863-1.3672-19.801-3.3594-38.34-5.9297-55.094l-0.27734-1.8711c-4.0977-26.836-7.6367-50.008-7.6367-77.355v-10.801c0-2.1367 0.046875-4.2734 0.097656-6.4062 0.3125-14.52 0.68359-30.984-14.531-42.371-9.3359-6.2266-19.199-7.0781-28.441-7.0781l-73.059 0.054688c-2.6992 0-5.6641-0.12109-8.7617-0.23828-3.6016-0.14453-7.3672-0.28906-11.16-0.28906-10.211 0-37.332 0-39.996 25.992-0.99609 9.6836 0.25391 21.336 1.4531 32.617 0.70703 6.5625 1.3906 12.996 1.5859 18.73 0.73047 22.105 2.2812 40.309 4.8945 57.383 1.668 9.9258-0.046875 30.707-0.085937 31.414 0 7.1758-0.085938 14.375-0.17969 21.574-0.17969 14.305-0.34766 29.113 0.17969 43.656l0.26562 5.3867c0.32422 5.9648 0.625 11.113-1.1055 13.031-0.92578 1.0195-3.3594 2.293-9.793 2.5938l-1.6445 0.035157c-5.6172 0-9.7188-1.4141-12.527-4.3203-6.9102-7.1523-6.3711-23.328-5.9414-36.324l0.046875-1.2734c1.1992-35.93-1.9688-71.711-5.0273-106.31-2.5781-29.184-5.2422-59.352-5.2578-88.969 1.8008-36.227 1.8125-61.766-0.058594-94.883-6.5508-39.254-5.5547-84.156-4.2461-114.5l0.12109-2.7734c0.40625-9.1562 0.875-19.535-0.20312-28.801-1.0938-9.3125-3.3008-22.211-5.9023-34.488-3.6719-17.172-26.566-26.438-46.246-26.438-15.266 0-26.711 5.4844-31.402 15.035-6.0469 12.277-2.9023 27.887-0.14453 41.641 1.4531 7.1992 2.8203 14.004 2.8086 19.586-0.046875 17.711 1.4023 34.969 2.8086 51.648 1.3555 16.105 2.7461 32.746 2.8672 50.664 1.1641 5.8086 0.94922 11.773 0.73047 18.086-0.046875 2.5742-0.14453 5.1562-0.14453 7.7344v10.801 21.602 5.3984 0.058594c0 33.648 3.1445 67.703 6.1914 100.64 0.74219 8.0039 1.4766 16.008 2.1484 23.496 0 11.902 0 25.379 1.8359 37.801 0 3.8516 0.46875 7.7031 0.96094 11.555 0.41797 3.3477 0.86328 6.6992 0.86328 10.047v5.3984 12.602 9c0 19.129 0.75781 38.398 1.5117 57.035 1.1055 27.898 2.2578 56.746 0.78125 85.066l-0.15625 2.2695c-0.42188 5.8906-1.0078 13.957 3.1445 19.355 6.1445 7.9922 22.02 12.371 49.969 13.789 10.535 0.51562 21.109-2.8672 31.668-3.4688 7.3906-0.42188 14.781-3.6484 23.121-3.6484h0.070313 3.3594c21.926 0 44.137 1.7539 65.594 0.73047 21.395-1.0195 43.523-0.67188 65.305-0.67188 93.504 0 185.04 1.043 276.96 5.1719 15.984 0.71875 31.98 1.4766 47.988 1.8711 18.73 0.48047 38.102 1.1406 57.086 2.1602 2.8906 0.15625 6.4805 0.81641 10.344 1.4297 5.9141 0.9375 12.625 2.0273 18.781 2.0273 6.1094 0 10.871-1.0195 14.566-3.168 12.863-7.4414 12.613-22.234 12.395-34.117-0.070312-3.5391-0.14453-6.9727 0.17969-10.02l0.66016-6.0234c1.957-18.059 3.9961-36.73 0.37109-55.559zm-215.7-124.63 0.058594 4.0312c-0.035156-0.27344-0.058594-0.42969-0.058594-0.42969v-3.6016zm5.0508 52.547c0.035157 1.1523 0.046875 2.2578 0.058594 3.3125v-0.058594c-0.007813-1.0312-0.035156-2.125-0.058594-3.2539zm1.875 28.215c0.035157 0.42187 0.070313 0.82812 0.12109 1.2461-0.039063-0.41797-0.074219-0.82812-0.12109-1.2461zm11.387 84.754 0.011719 0.12109c-1.2109-0.046876-2.3281-0.085938-3.2383-0.12109zm-6.3008 0s-0.011719 0 0 0c-0.011719 0-0.011719 0 0 0zm-0.011719-10.715v0 0zm-1.0781-28.273c-0.19141-2.8203-0.44531-5.6172-0.67188-8.4102 0.22656 2.7852 0.47656 5.6289 0.67188 8.4102zm-252.41-229.8c-0.55078 0.023437-1.0781 0.070312-1.6445 0.070312h-5.293-16.309-28.801-5.3984-9c-1.2734 0-2.6055-0.035156-3.9727-0.10938 1.3203 0.035156 2.7617 0.10938 3.9727 0.10938z"/>
</svg>
