<?xml version="1.0" encoding="UTF-8"?>
<svg width="1200pt" height="1200pt" version="1.1" viewBox="0 0 1200 1200" xmlns="http://www.w3.org/2000/svg">
 <path d="m958.22 592.62c-3.6484-65.746-7.3555-117.23-14.664-170.68-2.8906-21.266-6.2031-41.531-10.105-61.957-1.5977-8.3516-3.2539-16.98-6.9844-25.152-4.5352-9.8984-11.773-18.07-17.578-24.07-46.766-48.336-118.55-47.508-181.78-46.934-7.0664 0.085938-14.051 0.15625-20.879 0.15625-108.61 0.035157-218.26 5.6406-325.87 16.668-51.949 5.3047-71.316 21.516-99.84 64.512-23.305 35.16-36.457 77.762-38.039 123.23-1.8008 51.973-2.0391 105.18-2.2578 156.62-0.12109 26.555-0.23828 53.113-0.5625 79.633-0.50391 40.559-0.25391 74.293 7.668 108.42 7.8477 33.73 22.129 59.988 42.422 78.035 34.609 30.742 84.371 34.895 118.79 35.34 31.906 0.40625 64.078 2.4102 95.207 4.8711 34.246 2.7109 69.684 4.9805 105.16 4.9805h0.34766c72.742 0 146.26-6.4922 217.97-13.309 18.527-1.7656 39.539-3.5039 57.828-12.961 32.074-16.57 48.086-51.805 55.883-78.66 22.355-81.945 21.297-166.62 17.289-238.75zm-177.43 199.22c-10.066 2.6406-24.539 1.9453-36.227-16.094-9.0234-13.895-8.543-29.746 1.3086-43.488v-0.011719c8.2305-11.484 22.883-20.496 38.723-20.496 5.1133 0 10.332 0.9375 15.516 3.0352 14.531 5.8789 21.742 16.105 20.867 29.555-1.2852 20.055-20.078 42.246-40.188 47.5zm-367.72-370.15c2.8086-1.5234 5.9648-2.5547 9.3594-3.0859 1.7891-0.27734 3.6367-0.42188 5.5195-0.42188 6.7422 0 13.945 1.7773 20.773 5.1836 26.734 13.32 31.754 25.176 31.824 51.781-8.3984 8.3984-15.852 13.297-22.141 14.555-27.91 5.5781-45.938-1.3203-56.664-21.816-7.7383-14.789-4.5469-37.688 11.328-46.195zm380.86 12.48c2.6406 10.066 1.9453 24.539-16.094 36.227-13.895 9.0234-29.746 8.543-43.488-1.3086h-0.011718c-11.484-8.2305-20.496-22.883-20.496-38.723 0-5.1133 0.9375-10.332 3.0352-15.516 5.8789-14.531 16.105-21.742 29.555-20.867 20.055 1.2852 42.242 20.074 47.5 40.188zm-380.86 144.85c2.8086-1.5234 5.9648-2.5547 9.3594-3.0859 1.7891-0.27734 3.6367-0.42188 5.5195-0.42188 6.7422 0 13.945 1.7773 20.773 5.1836 26.734 13.32 31.754 25.176 31.824 51.781-8.3984 8.3984-15.852 13.297-22.141 14.555-27.91 5.5781-45.938-1.3203-56.664-21.816-7.7383-14.789-4.5469-37.688 11.328-46.195zm380.86 12.48c2.6406 10.066 1.9453 24.539-16.094 36.227-13.895 9.0234-29.746 8.543-43.488-1.3086h-0.011718c-11.484-8.2305-20.496-22.883-20.496-38.723 0-5.1133 0.9375-10.332 3.0352-15.516 5.8789-14.531 16.105-21.742 29.555-20.867 20.055 1.2852 42.242 20.074 47.5 40.188zm-370.15 210.38c-1.5234-2.8086-2.5547-5.9648-3.0859-9.3594-0.27734-1.7891-0.42187-3.6367-0.42187-5.5195 0-6.7422 1.7773-13.945 5.1836-20.773 13.32-26.734 25.176-31.754 51.781-31.824 8.3984 8.3984 13.297 15.852 14.555 22.141 5.5781 27.91-1.3203 45.938-21.816 56.664-14.793 7.7422-37.688 4.5508-46.195-11.328z"/>
</svg>
