<?xml version="1.0" encoding="UTF-8"?>
<svg width="1200pt" height="1200pt" version="1.1" viewBox="0 0 1200 1200" xmlns="http://www.w3.org/2000/svg">
 <path transform="scale(12)" d="m76.85 43.311c-1.3499-1.0501-2.6999-2.4001-4.1999-3.1501-0.75-0.30013-1.6501-0.59994-2.4001-0.90006-0.73698-0.40885-1.4759-0.85514-2.238-1.2321-0.26107-0.56315-0.62109-1.1081-0.91211-1.6178-0.30013-0.30013-0.75-0.90006-0.75-0.90006-0.75-1.1999-1.3499-2.5501-2.4001-3.4499-1.624-1.3919-3.54-2.2601-5.6178-2.7269-3.6921-0.8291-8.9261-2.5039-12.381-0.18099-1.4749 0.99186-0.25293 2.9382 0.51302 4.015 1.0781 1.516 2.3721 2.9701 3.0492 4.7191-3.585 0.90788-7.1781 1.0212-10.624 2.5781-1.1761 0.53092-2.3301 1.1491-3.3421 1.9551-0.93294 0.74284-1.25 1.693-2.2731 0.91406-1.0749-0.81901-2.0029-2.2572-2.932-3.2669-1.3411-1.458-2.7871-3.1191-4.7471-3.723l0.70508 0.21712c-1.5589-0.62305-3.2161-1.7259-4.8711-0.70898-2.2008 1.3519 0.035157 3.4691 0.6709 5.0589 0.30013 0.75 0.30013 1.6501 0.59994 2.4001 0.75 2.5501 1.5 5.25 1.3499 7.8001 0 1.6501-0.44987 4.1989-1.0501 5.4001-0.68197 1.3639-3.862 5.2572-2.0671 6.486 0.44792 0.30697 1.0049 0.40886 1.5459 0.45312 3.2689 0.264 6.4421-1.444 8.5179-3.8929 0.90397-1.0671 1.415-2.7129 2.8779-1.557 1.3509 1.0671 2.3529 1.7741 4.0941 2.2428 0.011068 0.004883 0.021159 0.012044 0.030925 0.017904 1.0501 0.44987 1.9499 1.2008 3 1.651 1.9499 0.90007 4.5 1.3499 6.75 1.5 1.262 0 2.639 0.10905 3.875 0.32292 0.22396 2.279-0.40788 4.5671-0.41309 6.8509-9.77e-4 0.36296 0.023112 0.75391 0.25 1.0381 0.31999 0.40104 0.91211 0.4349 1.4242 0.39095 2.1309-0.18587 3.3161-1.4551 4.763-2.902 0.75-0.75 1.3499-1.5 1.8011-2.402 1.2321-1.849 2.265-2.5869 4.5049-2.944 4.4079-0.70215 8.5941-2.7451 11.86-5.7881 2.248-2.0951 4.1829-4.3659 4.583-7.5179 0.05306-0.41406 0.072917-0.80794 0.056966-1.167-0.1084-2.4277-1.7575-4.5465-3.6045-5.9837zm-11.464 7.5492c-2.9329-2.54 2.224-6.0179 4.7051-3.4141 2.8717 3.016-2.584 5.25-4.7051 3.4141z" stroke="#000"/>
</svg>
