<?xml version="1.0" encoding="UTF-8"?>
<svg width="1200pt" height="1200pt" version="1.1" viewBox="0 0 1200 1200" xmlns="http://www.w3.org/2000/svg">
 <path d="m993.56 724.34c14.496-48.816 15.457-122.63-0.28906-174.59-0.17969-3.3945-0.28906-6.8047-0.50391-10.176-2.5195-40.32-3.7812-68.762-10.621-106.2-1.0078-5.7109-6.8516-11.809-12.781-16.738l9.3594 6.6602c-5.3281-7.0938-11.52-11.305-18.289-13.332-2.7734-1.8594-4.7539-3.0469-4.7539-3.0469l4.0195 2.8555c-44.316-12.156-113.39 69.973-136.68 93.266-11.699 11.699-41.941 25.738-43.559 24.84-41.762-24.84-115.02-89.82-163.98-90.898-37.078-0.89844-74.16 32.578-107.64 42.84-19.98 5.9414-39.961 11.879-59.762 18.18-9.7188 3.0586-28.801 10.98-30.602 11.52-6.4805 1.8008-16.199 12.059-18 12.961-8.4609 4.3203-5.3984 27.898-5.5781 29.699-7.5586 82.98 1.2617 166.86-6.1211 250.2-3.4219 37.262-18 115.01 0.88672 152.99 18.086 36.371 112.43-41.387 135.01-41.387 5.2188 0 12.602-9 14.219-9.8984 13.32-8.1016 55.98-47.52 81.18-45.898 7.5234 0.48047 15.469 2.6758 23.578 6.0234 1.8477 1.5859 3.5273 3.0859 4.8594 4.4141 7.1992 7.1992 23.762 18.359 25.559 20.16 6.6602 5.9414 21.602 16.199 23.039 17.281 7.0195 5.0156 19.152 12.926 26.566 17.723 7.7891 7.7891 14.762 15.203 20.41 21.516 13.141 14.762 39.602 38.52 61.379 37.078 20.34-1.2617 36.18-25.559 49.5-38.34 41.039-39.059 89.281-78.84 126.9-120.06 19.621-21.602 12.602-59.398 12.602-86.398 0.011719-4.4102 0.058594-8.8398 0.09375-13.242zm-357.56 20.426c-2.8789-28.801-5.7617-57.602-8.6406-86.398-0.35938-3.6016-1.0781-10.801-1.0781-12.781v-32.219c1.0781-40.141 2.1602-80.461 3.2383-120.6 0.035157-0.76953 0.085938-1.7266 0.13281-2.7109 1.9453 1.6211 4.332 3.0977 5.2695 3.793 10.801 8.1016 32.762 24.121 34.199 25.379 32.219 28.262 64.441 56.699 96.66 85.141 4.332 3.8633 10.367 9.3242 17.125 14.305 0.52734 92.977 1.0664 186.12 1.7773 279.1 0 1.8594 0.15625 4.0547 0.37109 6.3594-22.105-11.328-61.57-31.633-61.57-33.359l-1.2617-1.2617c-13.141-12.422-38.34-38.34-39.422-39.781-10.969-14.195-21.324-28.738-33.445-41.734l1.2227 0.875c-3.2266-3.2266-7.4141-8.1133-12.133-12.684 0.13281-10.816-1.6641-23.066-2.4453-31.418zm-30.637 80.328c-0.23828 0.23828-0.28906 0.28906-0.68359 0.68359z"/>
</svg>
