<?xml version="1.0" encoding="UTF-8"?>
<svg width="1200pt" height="1200pt" version="1.1" viewBox="0 0 1200 1200" xmlns="http://www.w3.org/2000/svg">
 <path d="m945.49 383.35c-1.2461-9.168-2.7461-18.422-4.5117-27.816-16.656-88.43-185.44-61.441-252.43-63.539-59.195-1.8477-54.121-3.0117-113.27-7.0195-39.191-2.6523-76.906 0.55078-115.4 1.6094-42.457 1.1758-91.176-12.828-128.17 10.199-31.078 19.344-65.566 45.086-72.047 83.41-7.1641 42.383 1.5586 87.168 0.74219 129.88-1.668 87.539-3.3359 175.08-5.0039 262.62-0.64844 33.84-17.207 106.56 10.117 132.67 17.004 16.246 25.859 13.523 41.039 0.15625 7.6445-6.7305 48.254-37.754 48.434-46.777 19.812-19.066 39.898-54.613 66.07-64.895 18.238-7.1758 43.922-0.023437 63.133 0.55078 96.793 2.8672 195.59 3.5391 292.14-6.1797 38.785-3.9102 104.79 14.398 132.6-21.516 8.2695-10.68 10.477-24.719 12.133-38.125 7.8359-63.457 13.715-125.48 22.57-188.68 7.6445-54.574 8.9883-104.02 1.8594-156.55zm-133.52 299.29c-25.453 1.9219-51.254-0.98438-76.738-0.98438h-91.754-147.95c-29.207 0-72.434 6.8164-99.887-4.5234-3.2891-1.3555-6.5742-3.0859-8.7852-5.8789-13.598-17.23 24.984-42.898 34.402-52.32 12.973-12.973 29.195-25.066 39.926-39.996 9.1914-12.781 14.074-26.82 28.789-35.219 24.863-14.207 38.352 8.1953 54.324 24.156 9.7305 9.7305 19.309 22.367 30.48 30.383 12.191 8.7461 12.156 3.8047 19.234-7.1992 12.168-18.91 31.512-31.801 47.195-47.484 11.594-11.594 22.859-23.688 34.859-34.859 12.203-11.363 22.621-4.4023 32.438 6.1211 18.77 20.125 35.543 39.301 50.172 62.281 0 0 17.004 22.234 24.852 34.008 0 0 3.9258 5.2305 5.2305 7.8477 2.6172 2.6172 5.2305 5.2305 6.5391 7.8477 0 0 10.465 7.8477 10.465 13.078 2.7461 3.2891 6.0977 6.6719 9.4219 10.211 13.07 13.918 21.973 30.633-3.2148 32.531z"/>
</svg>
