<?xml version="1.0" encoding="UTF-8"?>
<svg width="1200pt" height="1200pt" version="1.1" viewBox="0 0 1200 1200" xmlns="http://www.w3.org/2000/svg">
 <path d="m463.46 562.16c0 15.48 6.6602 34.199 10.078 48.059 1.4414 6.3008 7.9219 18 8.8203 19.801 19.262 38.52 67.859 59.039 108.9 61.559 16.559 1.0781 23.941 1.2617 38.52-6.1211 5.9414-3.0586 17.281-10.441 19.078-10.441 12.238-3.9609 30.602-23.398 32.398-24.301 4.1406-1.9805 7.1992-11.699 8.4609-13.141 10.262-11.879 22.141-41.762 23.039-43.559 0.35938-0.53906 0.89844-1.8008 1.4414-3.6016 5.7617-23.578 8.6406-52.199 12.059-73.801 0.71875-3.6016 1.8008-10.801 1.9805-12.602 1.0781-7.7383 1.6211-23.398 1.6211-25.379 0-13.68 0.35938-27.539-1.0781-41.219-0.89844-7.7383-2.5195-23.398-2.6992-25.199-1.0781-10.262-5.2188-30.602-5.2188-32.762 0-6.1211-3.6016-17.641-3.9609-19.441-7.3789-44.281-19.801-75.422-50.578-108.54-4.6445-5.0273-13.738-7.9336-22.754-9.6484-6.3711-1.6445-12.887-2.4102-21.348-2.4102-0.3125 0-0.70703 0.046875-1.0547 0.058593-1.6797-0.046874-2.7227-0.058593-2.7227-0.058593l0.80469 0.16797c-7.1523 0.70703-17.449 3.4336-19.164 3.4336-20.699 0-43.922 2.3398-62.82 10.801-11.699 5.2188-28.801 25.199-30.422 26.102-24.301 14.219-43.02 37.801-46.98 67.5-1.8008 13.68 1.8008 41.398 1.6211 43.199-1.6211 13.859-3.2383 27.539-3.7812 41.398-0.53906 11.34-1.4414 34.199-1.4414 34.199l-0.17969 1.8008c-0.71875 13.5-1.9805 26.281 0 39.602 2.3438 17.465 7.3828 52.203 7.3828 54.543z"/>
 <path d="m888.27 574.22 3.6016 0.89844c-4.1406-1.0781-12.238-6.8398-16.199-6.3008-7.1992 0.89844-16.199 14.398-16.199 14.398-2.3398 10.801-7.1992 32.398-7.7383 34.199-8.2812 24.121-16.559 48.238-24.66 72.359-1.2617 3.6016-3.6016 10.441-4.3203 12.238-0.89844 2.3398-2.8789 7.1992-4.1406 8.6406-8.6406 9-25.738 27.359-27.539 29.16l-1.6211 0.89844c-19.262 10.078-38.34 19.801-57.961 28.98-9.5391 4.3203-28.621 13.32-30.422 13.32l-1.8008 0.35938c-22.141 3.4219-44.461 7.0195-66.602 10.441-3.6016 0.71875-10.801 1.8008-12.602 2.3398-1.8008 0.35938-5.3984 1.2617-7.1992 1.2617-6.6602 0-19.801 0-21.602-0.17969-14.398-1.0781-43.199-3.4219-45-3.7812-3.0586-0.35938-9-1.4414-10.801-1.9805-4.8594-1.6211-14.398-4.8594-16.02-5.5781-9.7188-3.9609-28.98-11.879-30.602-12.781-15.66-8.6406-46.98-26.102-48.602-27.18-3.0586-1.9805-9.1797-6.1211-10.441-7.3789-9.1797-9.1797-27.539-27.539-28.441-29.16-9-14.039-18.539-27.18-24.66-42.66-5.2188-13.5-15.84-40.32-16.379-42.121-3.0586-11.16-12.059-32.398-12.961-34.199-0.53906-0.89844-2.6992-1.8008-3.6016-3.6016-0.89844-1.9805-6.3008-1.8008-8.1016-2.3398-2.3398-0.89844-7.1992 0.53906-9-0.35937-1.0781-0.53906-3.6016-0.89844-5.3984-2.1602-8.8203-5.7617-19.801 24.66-19.441 26.461 7.1992 47.52 27 95.219 63.539 127.98 14.578 12.961 26.641 29.34 43.922 38.52 9.7188 5.0391 28.98 15.301 30.781 16.199 1.8008 0.89844 5.3984 2.6992 7.0195 3.6016 11.52 6.6602 36.18 17.102 37.98 18 5.9414 2.8789 18 8.1016 19.621 8.8203 12.238 5.5781 37.98 13.68 39.781 14.219 7.5586 2.5195 23.398 4.8594 25.199 5.2188 6.4805 0.98438-5.8555 1.3086 0.085938 1.4023-1.2227 16.031 0.83984 35.09 1.8828 48.637 1.3906 17.688 2.8906 40.789 12.312 56.039 6.1094 9.875 16.488 13.992 26.773 13.465 11.832-0.60156 23.543-7.3672 28.488-18.602 12.348-28.066 2.2578-64.883 0.98438-94.105-0.12109-2.6523 0.38281-6.9609 0.32422-10.273 1.1758-0.20312 2.6758-0.3125 3.8398-0.53906 12.238-2.3398 60.156-10.801 61.957-11.16 6.6602-1.2617 19.871-5.0391 21.672-5.5781 37.262-10.621 63.035-24.66 91.117-51.301 10.262-9.8984 27.742-32.762 29.543-34.02 12.602-9.5391 20.352-28.441 24.492-43.559 7.0195-27.18 14.219-54.18 21.238-81.359 1.0781-3.6016 2.8789-10.621 3.4219-12.422 2.7148-7.8984-9.5234-23.379-9.5234-23.379z"/>
</svg>
