<?xml version="1.0" encoding="UTF-8"?>
<svg width="1200pt" height="1200pt" version="1.1" viewBox="0 0 1200 1200" xmlns="http://www.w3.org/2000/svg">
 <path d="m971.06 598.59c-2.3867-72.91-4.2344-151.22-30.758-219.66-10.129-26.137-23.855-50.832-42.59-73.223-125.09-149.58-455.96-142.52-568.52 21.395-101.95 148.45-147.78 372-34.164 522.72 38.281 50.785 89.641 115.81 153.59 133.98 70.066 19.895 167.76 20.449 239.52 13.789 62.41-5.7852 125.28-26.352 171.41-68.785 89.594-82.418 115.37-212.92 111.52-330.21zm-199.22-137.98c-15.301 12.422-55.836-2.6992-75.457-0.71875-16.738 1.6211-33.359 3.4219-50.09 5.0391-13.859 1.332-21.996-1.7891-23.449 14.184-0.52344 5.8203 1.1562 11.938 1.1562 17.781v54.926 132.68c0 29.074-2.7734 55.391-7.0078 83.855-4.8125 32.398-25.922 71.902-59.52 82.836-22.188 7.2227-53.762 8.0898-74.699-3.1445-12.898-6.9258-23.508-17.449-33.035-28.57-21.434-25.02-39.07-57.445-32.363-89.699 1.8359-8.8438 5.4375-17.219 9.168-25.453 5.3281-11.762 11.281-23.762 21.266-31.945 8.4102-6.8867 18.984-10.488 29.398-13.609 13.812-4.1406 28.008-7.7148 42.434-7.4414 6.3242 0.12109 12.695 1.0195 18.742 2.9023 3.6953 1.1523 14.855 9.1445 18.023 8.1484 8.7109-2.7344 6.875-34.609 7.5977-42.719 2.8906-32.652 5.9531-65.281 9.4922-97.859 0.17969-1.8008 2.5195-40.141 3.6016-59.398 0.17969-1.8008 3.2383-32.941 3.7812-48.602 0-1.8008 2.5195-33.84 14.398-41.398 9-5.7617 25.379-7.1992 36-9.3594 29.363-5.5664 109.05-31.078 139.5-13.609 3.6836 1.7031 6.6836 3.9102 8.1016 6.7695 8.8359 18 6.2812 93.602-7.0391 104.4z"/>
</svg>
