<?xml version="1.0" encoding="UTF-8"?>
<svg width="1200pt" height="1200pt" version="1.1" viewBox="0 0 1200 1200" xmlns="http://www.w3.org/2000/svg">
 <path d="m270.37 903.76c0.44531 19.957 4.668 31.512 24.938 31.512 4.0664 0 8.8555-0.38281 14.496-0.83984l1.8008-0.15625c39.73-3.2031 89.16-7.1992 123.53-32.902 20.578-15.395 38.809-33.984 56.461-51.949 17.387-17.711 35.363-36.012 55.547-51.238 41.363-31.234 79.68-66.289 116.72-100.21 13.129-12.012 26.27-24.059 39.613-35.988 25.273-22.621 47.746-47.258 66.828-68.555 2.207-2.4492 4.8359-5.0508 7.6211-7.7891 11.879-11.711 26.676-26.281 23.832-44.16-0.35937-2.293-0.97266-4.5977-1.7891-6.8867-5.7461-16.164-21.742-31.391-35.879-44.832-5.7109-5.4258-11.102-10.559-14.988-15.012-9.2031-16.402-29.746-45.551-30.539-46.668-3.5273-5.3047-8.832-14.137-8.8438-14.172l-1.5-2.0156c-0.5625-0.89844-1.7891-2.9023-4.1875-3.8984l-4.8477-4.7773c-3.5898-2.6992-6.2539-4.9062-9.1211-7.2461-2.4102-1.9805-4.6914-3.7695-7.9922-5.9297-4.7383-2.3633-10.992-2.4375-11.699-2.4375l-0.023438 0.13281c-3.0977-0.45703-6.2773 1.0547-8.7109 2.6758-0.30078 0.21484-0.61328 0.42188-0.89844 0.625-5.207-0.70703-9.707 0.30078-13.703 2.7461-3.3125 1.0938-6.4336 3.4688-8.2812 5.0742-2.543 0.80469-4.3906 2.4727-5.0273 3.1094l-24.289 24.301c-3.7422 1.5977-6.5742 4.1992-9.3242 6.7305-1.5703 1.4531-3.1914 2.9648-5.4102 4.4766-5.9023 4.5859-11.797 8.9297-17.605 13.211-10.367 7.6445-20.16 14.855-29.688 23.207-30.133 29.016-57.156 60.48-83.281 90.887l-13.738 15.84-2.0742 1.3555c-0.81641 0.81641-3.8984 3.0586-5.6289 4.2617-15.324 7.668-26.629 18.984-37.199 29.594l-5.9023 4.9922c-22.32 18.828-50.102 42.254-68.258 63.742-3.9727 3.9609-8.1719 7.8594-12.395 11.785-15 13.945-30.516 28.355-38.734 47.844-7.5859 18.012-6.4805 37.766-5.4258 56.879 0.34766 6.3242 0.70703 12.562 0.70703 18.59 0 13.02-1.2852 26.34-2.543 39.238-1.4258 14.637-2.8906 29.758-2.5664 44.855z"/>
 <path d="m840.07 493.07c5.3867 0 11.039-1.3438 16.766-3.9844 27.984-12.863 52.285-41.242 64.285-57.012 8.375-10.992 8.9531-20.34 8.4102-28.055-0.25391-3.3359-0.76953-6.7422-1.332-10.297-0.80469-5.1133-1.6445-10.391-1.6445-16.297 0-3.5156-0.60156-6.8047-1.1289-9.707-0.32422-1.7656-0.67188-3.3828-0.67188-4.7031 0-2.3516-1.0781-5.1836-1.9688-7.1055-1.9922-15.805-8.9297-28.188-21.395-38.543-5.3984-5.4102-13.98-12.312-14.125-12.324-9.8867-11.281-21.984-23.543-37.32-30.012l0.13281-0.625-8.5078-2.293c-14.34-3.8867-28.379-7.3789-42.289-7.3789-15.047 0-27.277 4.1641-36.613 12.145-18.793 11.281-32.207 24.695-43.453 43.465l-0.53906 1.1758c-1.0781 3.2031-1.5352 6.3594-1.7656 9.0352-3.7812 4.8711-5.7461 11.605-5.7461 16.273 0 4.2852 2.4609 8.7461 4.6328 12.672 0.51562 0.92578 1.0078 1.8125 1.4023 2.6055l5.1133 5.5547c0.73047 2.9883 2.4375 5.5547 3.875 7.7148 0.66016 0.98438 1.3203 1.957 1.8125 2.9531l1.1172 1.5352c0.71875 0.71875 1.9062 2.7109 2.4844 3.8633 2.2578 4.5 8.8086 9.6367 9.8984 10.309 17.148 19.055 33.898 39.695 46.586 55.547 2.5781 3.2266 5.1133 6.6953 7.6797 10.211 11.414 15.578 24.34 33.266 44.305 33.277z"/>
</svg>
