<?xml version="1.0" encoding="UTF-8"?>
<svg width="1200pt" height="1200pt" version="1.1" viewBox="0 0 1200 1200" xmlns="http://www.w3.org/2000/svg">
 <path d="m952.97 498.23c-0.43359-18.227-2.6523-41.137-16.129-56.699-19.727-22.766-56.004-22.836-85.152-22.895-7.2344-0.011718-14.125-0.023437-20.305-0.37109-34.488-2.0039-69.84-1.3086-104.02-0.66016-17.281 0.33594-34.523 0.67188-51.66 0.67188-21.07 0-42.996 1.2109-66.203 2.4727-43.297 2.3867-87.926 4.8125-127.68-0.89844 26.93-22.598 55.078-39.492 84.707-57.266 15.816-9.4805 32.16-19.285 48.422-30.109 2.5781-1.7148 5.5938-3.4219 8.5938-5.1367 3.2656-1.8711 6.5391-3.7422 10.262-6.3711l3.5742-3.5898c0.42188-0.42188 0.99609-0.81641 1.5586-1.2461 1.2227-0.91016 2.6758-2.0039 3.793-3.4062 11.219-4.4297 19.824-20.207 19.824-31.992 0-4.9922-6.2383-12.312-7.1523-13.234-1.5859-1.5977-3.8281-3.0117-5.3633-3.8867-1.7539-2.5078-4.5-4.9805-8.3633-7.5117-1.4023-0.89844-2.7969-1.7266-3.9961-2.3281l-2.5195-0.63672c-0.74219-0.085937-3.3594-0.78125-5.4961-1.5l-0.49219 1.1055c-3.3477 0.085938-7.043 0.80469-11.496 2.2422-6.0859 0.45703-13.703 4.5977-17.52 7.3906-2.1484 0.33594-4.957 0.97266-7.3672 1.5703-15.973 0.49219-35.074 15.816-45.938 24.527-16.188 11.699-32.375 22.934-48.562 34.176-16.211 11.258-32.426 22.523-49.355 34.836l-13.02 9.0703c-11.473 7.5234-22.285 14.641-32.723 22.488l-35.195 21.996c-4.4531 2.7852-7.5586 4.7383-7.7539 4.8594-5.2422 2.8672-10.586 5.7734-15.996 8.7109-26.867 14.543-54.648 29.594-78.098 47.617-22.094 16.992-20.004 43.078-18 68.305 0.66016 8.3047 1.3438 16.895 1.1641 25.066-1.8359 81.445-1.3086 164.04 1.5703 246.19 1.6094 45.926 4.6211 131.4 65.699 135.53 11.953 0.80469 24.059 1.0781 36.156 1.0781 12.121 0 24.227-0.26562 36.121-0.53906 11.891-0.25391 23.762-0.52734 35.52-0.52734l262.5 0.003906c53.711-0.023437 111.38-0.26562 167.52-3.7578 6.9102-0.43359 15.516-0.97266 23.676-3.4062 17.734-5.3047 33.602-19.934 43.547-40.141 10.934-22.234 14.352-47.734 17.664-72.383 1.0664-7.9922 2.1367-15.875 3.4336-23.52 4.8359-28.285 4.4766-57.18 4.1289-85.117-0.17969-13.824-0.34766-28.129 0.10938-42.059 0.52734-15.742 1.6094-31.836 2.6641-47.41 1.8242-27.086 3.7188-55.094 2.7852-82.68-0.22656-6.6484 0.011719-14.219 0.25391-22.223 0.24609-8.5117 0.52344-17.5 0.30859-26.406zm-567.35 276.41c11.102-14.328 31.223-23.605 49.285-23.605 3.5039 0 6.9492 0.34766 10.211 1.0938 16.105 3.6016 32.184 20.074 38.219 39.156 2.6992 8.5312 5.5195 24.719-5.9297 37.32-5.4727 6.0117-12.109 10.391-19.738 13.043-19.754 6.8984-45.168 1.4648-63.18-13.441-5.6875-4.7148-10.246-8.7109-12.84-13.789-8.8203-17.242-2.7109-31.148 3.9727-39.777zm384.56-133.04c-5.0039-4.668-7.2617-11.398-6.9102-20.605 0.27734-7.2227 1.5-15.684 2.7969-24.637 2.8086-19.367 5.7109-39.406 0.58984-54.742-1.2617-3.7812-4.0312-7.043-8.4492-9.8867l0.27734-0.64844c-2.7852-1.5586-5.6875-2.7227-8.8086-3.5898l-0.17969-0.070313c-2.543-1.668-6.5391-2.5078-11.941-2.5078l-0.14453 0.97266c-4.5234 0.035156-8.9023 0.64844-13.477 1.2617-4.8242 0.67188-9.8047 1.3555-16.176 1.4414-40.055 6.6836-47.52 21.254-49.609 61.645l-2.8906 55.957c-84.516-4.2109-174.17-8.2422-262.52-8.2422-6.1914 0-13.777 0.70703-21.816 1.4414-15.961 1.4648-34.055 3.1562-44.543-0.37109-7.7773-2.6289-11.449-13.414-13.152-22.008-8.1953-41.242 9.625-115.92 23.363-127.89 35.438-30.887 95.184-26.844 147.93-23.27 36.539 2.4609 66.805 2.207 98.316 1.4883 15.742-0.35938 31.465-0.81641 47.16-1.2852l0.070312 0.64844 11.148-0.96094c45.254-1.2969 91.715-2.4492 137.76-0.82812 25.309 0 80.844 9.1211 96.77 26.531 5.4258 5.9531 8.3398 14.074 10.668 21.973 12.227 41.305 16.703 86.316 13.273 134.24-2.6992-1.0195-5.5312-1.7383-8.3867-2.1016-11.184-1.4023-26.832 0.32422-43.414 2.1602-28.32 3.125-63.598 7.0352-77.699-6.1133zm124.99 80.879c-0.26562 0.023438-0.51562 0.058594-0.76953 0.097656-0.19141-1.5234-0.44531-3.1094-0.68359-4.5234 0.53906-0.30078 1.0781-0.61328 1.5977-0.92578-0.023437 1.7852-0.085937 3.5742-0.14453 5.3516z"/>
</svg>
