<?xml version="1.0" encoding="UTF-8"?>
<svg width="1200pt" height="1200pt" version="1.1" viewBox="0 0 1200 1200" xmlns="http://www.w3.org/2000/svg">
 <path d="m989.91 779.75c0-27-3.6016-54-5.3984-79.199 0-21.602 5.3984-43.199 5.3984-63-1.8008-36-7.1992-70.199-5.3984-106.2 1.8008-34.199 1.8008-68.398 0-104.4-1.8008-37.801-7.1992-77.398-34.199-106.2-36-41.398-90-61.199-144-59.398-30.602 0-61.199 7.1992-91.801 7.1992-25.199-1.8008-48.602-7.1992-73.801-10.801-7.1992 0-12.602 0-19.801-1.8008h-19.801c-2.207 0-3.9727-0.38281-5.6992-0.73047-27.816-5.6992-58.656 0.73047-87.898 0.73047-10.801 1.8008-21.602 0-32.398 0-12.602 1.8008-59.398 7.1992-75.602 7.1992-9 0-18-1.8008-27-1.8008-32.398-1.8008-72 12.602-99 30.602-10.801 7.1992-18 19.801-25.199 30.602-9 12.602-18 23.398-23.398 37.801-27 70.199-10.801 142.2-7.1992 214.2 1.8008 37.801 1.8008 50.398 5.3984 90 3.6016 28.801 3.6016 59.398 7.1992 90 0 12.602 3.6016 25.199 5.3984 37.801 0 19.801-1.8008 39.602 5.3984 59.398 9 21.602 28.801 45 43.199 61.199 10.801 10.801 21.602 14.398 36 16.199 36 7.1992 43.199 7.1992 81 12.602 19.801 1.8008 36 5.3984 55.801 5.3984 25.199-1.8008 63-9 91.801-9 48.602 0 99 0 147.6-1.8008 10.801 0 21.602 1.8008 32.398 1.8008 30.602-1.8008 59.398-9 90-10.801 9 0 19.801 1.8008 28.801 1.8008 21.602 0 66.602-10.801 77.398-12.602 9-3.6016 19.801-5.3984 30.602-10.801 16.199-10.801 23.398-28.801 27-48.602 5.4023-26.996 9-50.398 7.1992-77.398zm-471.68-17.219c-1.4023 11.219-5.6055 23.832-14.016 32.242-19.633 16.824-61.691 19.633-82.715 2.8086 0 0-2.8086-1.4023-4.1992-2.8086-2.8086 0-5.6055-2.8086-7.0078-4.2109-5.6055-5.6055-11.219-14.016-14.016-21.023 0-1.4023-2.8086-7.0078-2.8086-9.8164 0 0 0-4.2109-1.4023-5.6055-1.4023-2.8086-1.4023-7.0078-1.4023-9.8164-1.4023-9.8164 2.8086-16.824 8.4102-23.832 7.0078-7.0078 19.633-12.625 28.043-15.422 12.938-6.4688 26.688-12.035 40.645-11.762l-5.5938-0.86328s6.2656 0.011719 10.5 1.2109c1.1875 0.14453 2.375 0.42188 3.5625 0.66016 0.68359 0.14453 1.3438 0.22656 2.0273 0.45703 0.70703 0.17969 1.4141 0.26562 2.125 0.48047l-1.5586-0.23828c4.1992 1.5117 8.4609 4.3438 11.375 7.2461 0 0 4.1992 2.8086 5.6055 4.2109 4.1992 1.4023 7.0078 5.6055 9.8164 8.4102 8.4102 8.4102 12.613 18.227 12.613 29.438 0 1.4023 1.4023 5.6055 1.4023 7.0078 0 4.2188-1.4062 8.4297-1.4062 11.227zm157.02 2.8086c-8.4102 8.4102-18.227 5.6055-28.043 7.0078-7.0078 0-15.422 2.8086-23.832 2.8086-5.6055 0-21.035 0-28.043-1.4023-21.035-4.1992-14.016-25.234-14.016-40.656 0-14.016-7.0078-30.84-12.613-43.465-11.219-19.633-33.648-30.84-51.875-42.059-21.023-14.016-43.465-16.824-68.699-21.023-16.824-1.4023-36.457 4.1992-37.848-19.633-1.4023-4.2109-1.4023-8.4102-1.4023-12.613 0 0-2.8086-2.8086-4.1992-4.2109-1.4023-4.1992-2.8086-7.0078-1.4023-12.613 0-14.016 2.8086-30.84 15.422-39.254 11.219-9.8164 21.035-4.2109 35.051-4.2109 9.8164 0 16.824-4.1992 28.043-2.8086 0 0 12.613 1.4023 18.227 2.8086 7.0078 1.4023 14.016 1.4023 21.023 1.4023 21.035 1.4023 37.848 9.8164 57.48 21.035 18.227 11.219 29.438 18.227 44.867 32.242 16.824 15.422 37.848 30.84 44.867 53.281 5.6055 21.023 7.0078 43.465 11.219 65.891 2.793 15.414 9.8008 43.457-4.2266 57.473zm171.05-7.0078c-6.4219 7.7148-14.004 8.2578-19.547 0.74219 0.10938 1.1055 0.12109 2.2578-0.085937 3.457-4.2109 22.43-32.242 2.8086-43.465 1.4023-9.8164 0-22.43 7.0078-32.242 0-8.4102-5.6055-7.0078-16.824-8.4102-25.234-1.4023-15.422 0-32.242-4.1992-46.262-14.016-57.48-32.242-121.97-79.906-164.03-15.422-14.016-33.648-21.035-53.281-28.043-19.633-7.0078-37.848-15.422-58.883-18.227-26.641-2.8086-56.074-1.4023-82.715-2.8086-16.164 0-36.156 12.828-44.426-7.2852-3.9102-9.5156-0.875-23.172-2.0156-33.336-1.1641-10.273-2.3164-20.688-0.60156-30.863 4.4297-26.219 16.512-22.441 37.223-22.441h4.1992c-2.6641 0-10.211-1.0078-18.07-0.94922-2.5469-0.25-4.3594-0.45312-4.3594-0.45312l35.051 1.4023h-1.4023c16.824 1.4023 36.457 1.4023 53.281 7.0078 11.219 4.1992 19.633 2.8086 32.242 4.1992 12.625 1.4023 25.234 4.1992 37.848 5.6055 18.227 2.8086 36.457 8.4102 54.672 14.016 22.43 4.1992 44.867 9.8164 65.891 18.227 39.254 15.422 64.488 54.672 84.121 91.129 12.613 23.832 26.641 46.262 36.457 71.496 11.219 29.449 14.016 61.691 14.016 92.531 1.4023 16.824 2.8086 32.242 2.8086 49.066 0 5.6328 0 15.438-4.1992 19.648z"/>
</svg>
