<?xml version="1.0" encoding="UTF-8"?>
<svg width="1200pt" height="1200pt" version="1.1" viewBox="0 0 1200 1200" xmlns="http://www.w3.org/2000/svg">
 <path d="m939.32 490.4c-12.059-44.965-35.062-90.91-68.387-136.56-17.293-23.699-41.387-52.715-74.27-66.875-22.801-9.8164-48.457-11.902-71.09-13.754-3.9492-0.3125-10.188-1.3789-17.531-2.6172-33.695-5.6758-62.496-9.5273-73.621 0.76953-13.066 12.059-1.5 62.293-1.3789 62.797 2.2578 9 7.1758 14.184 15.84 16.656 2.6641 1.5352 5.9531 1.4531 8.543 0.98438 8.3398 5.2188 17.617 3.5508 25.234 2.1836 4.1641-0.74219 8.1133-1.4531 12.012-0.875 17.746 0 42.203 9.0352 70.754 26.172 28.379 16.68 53.074 45.215 67.668 78 21.863 56.496 36.938 104.12 16.246 159.35-9.457 22.969-18.949 36.625-30.961 53.902-3.6602 5.2578-7.5234 10.812-11.832 17.293-2.7734 4.6328-4.6094 9.4453-6.3711 14.102-1.7891 4.7383-3.4922 9.2148-6.1562 12.781-21.059 33.336-53.566 58.621-84.816 82.934-9.3945 6.7188-21.277 11.605-33.852 16.789-19.789 8.1484-40.246 16.57-51.984 33-13.152 16.895-9.2383 35.594-5.7734 52.105l1.1758 6.1211c1.8008 12.816 4.8242 34.262 27.336 34.262 10.379 0 19.98-6.5039 28.441-12.238 3.6602-2.4844 7.1289-4.8359 10.645-6.6133 4.1992-2.5078 9.6133-4.2461 15.348-6.0703 5.4961-1.7539 11.184-3.5625 16.645-6.3008 26.281-13.141 46.691-33.023 66.434-52.246 5.3047-5.1836 10.598-10.332 16.129-15.48 7.3906-7.3906 14.352-15.742 21.086-23.809 6.5391-7.8594 13.309-15.984 20.594-23.281 4.1172-4.6914 8.4258-9 12.672-13.234 8.6875-8.6875 17.664-17.664 24.035-29.137 22.836-39.996 35.426-83.195 45.59-123.83 1.6328-6.0703 3.3125-12.086 5.0039-18.059 11.168-39.891 21.777-77.531 10.594-119.22z"/>
 <path d="m591.93 272.21c-1.3789-2.6523-3.9102-5.2188-7.0547-7.2109-0.40625-0.51562-0.81641-0.99609-1.1875-1.3672l-1.9062-1.2617c-22.309-9.3242-32.879 11.219-39.168 23.508-1.4531 2.8438-2.7852 5.4844-4.2852 7.7383-9.9609 16.609-29.016 37.859-45.504 50.699-15.156 12.73-26.004 21.359-34.836 28.391-17.617 14.004-27.312 21.719-46.68 42.289-4.7539 5.0508-9.1562 10.453-13.512 15.805-12.672 15.551-24.648 30.254-43.957 33.254-9.5273 1.4883-19.344 0.75781-29.723 0.011719-15.227-1.1055-30.949-2.2422-46.43 3.793-26.113 10.273-22.105 71.398-16.285 127.88 0.70703 6.7422 1.2617 12.191 1.4648 15.66 0.99609 17.52-1.0547 35.375-3.0352 52.656-1.0781 9.4688-2.1719 18.938-2.7969 28.441l-0.35938 5.2305c-1.0547 14.531-1.6914 23.316 3.9102 29.699 4.9062 5.5938 13.297 7.1758 24.359 7.8125 9.6953 0.5625 21.371-0.52734 33.758-1.7031 22.211-2.0742 47.34-4.4297 60.984 3.4453 7.2461 4.1875 15.371 15.324 22.559 25.164 5.1602 7.0547 10.02 13.727 14.879 18.59 4.8945 4.8945 10.043 9.6367 15.203 14.387 8.8203 8.125 17.953 16.535 25.535 25.633 4.4531 5.3398 8.8906 11.125 13.344 16.922 4.5469 5.9141 9.1094 11.82 14.039 17.711 9.5273 9.5156 25.141 25.105 41.207 25.105 0.85156 0 1.7266-0.035157 2.5781-0.13281 7.7539-0.83984 14.305-5.3398 19.43-13.32 3.9102-5.8672 5.3867-12.742 6.1094-17.809 4.5703-7.6797 5.7969-17.746 6.8984-26.699 0.61328-4.8594 1.1758-9.457 2.2812-13.441 2.207-10.98 4.3906-19.859 6.4688-28.234 3-12.109 5.8203-23.531 7.9805-38.605 9.9102-62.855 10.453-126.34 10.98-187.73 0.32422-39.086 0.67188-79.5 3.4688-118.68 1.2344-13.559 0.81641-27.168 0.42188-40.32-0.20312-6.5391-0.39453-13.078-0.39453-19.621 0-7.9805 0.91016-16.273 1.8828-25.055 1.3672-12.445 2.7852-25.309 1.7031-37.559 0.32031-5.0938 1.5938-30.855-4.332-41.082z"/>
 <path d="m649.08 500.11c0 8.4492 0 17.184-1.6914 25.598l-0.070313 0.43359c-3.7422 29.965-5.7344 58.609-7.8359 88.945-0.9375 13.402-1.8711 26.988-2.9297 40.414-3.7188 22.332-5.4727 35.039-5.4727 54.984l-0.085937 4.5859c-0.26563 12.312-0.74219 32.941 6.6719 45.816 5.2578 6.9961 13.945 10.992 22.559 10.992 3.3008 0 6.6016-0.58984 9.6836-1.8242l2.0273-1.332c0.42188-0.43359 1.2344-1.1055 2.1602-1.8828 3.2891-2.7852 5.7227-4.9219 7.1406-7.0078 7.4023-4.4297 14.219-12.742 19.477-19.883l10.812-10.801c3.6836-3.6836 6.9102-7.3672 10.141-11.051 3.0859-3.5156 6.1562-7.0312 9.6719-10.547l1.7539-1.7539v-1.4766c0.43359-0.61328 1.2461-1.5859 2.1602-2.5078 3.2773-3.8281 6.6953-7.7031 10.152-11.629 19.98-22.715 40.656-46.188 48.742-73.777 2.3047-10.414 3.8867-27.145 5.1719-40.586 0.75781-8.0742 1.4141-15.121 2.1719-20.113l-0.097656-24.48c-4.0664-22.355-12.133-42.434-22.715-56.531-1.957-2.6055-3.6719-5.2188-5.3047-7.7383-3.0117-4.5703-5.8438-8.9023-9.6484-12.695-2.7461-2.7461-8.3984-9.6719-10.344-12.098l-1.8008-2.2578h-1.4414c-0.68359-0.57422-1.4648-1.043-2.3633-1.3555l-4.5703-3.7188c-5.4609-4.5-9.4062-7.7383-17.027-12.289-3.625-1.8125-8.9297-3.6367-9.0703-3.6367-2.3047-1.1523-4.4141-2.3047-6.5391-3.4688-4.2734-2.3398-8.7109-4.7539-14.629-7.1758-1.8359-1.2852-4.1406-1.9453-6.2539-2.2695l0.25391-0.32422c-2.2695-2.2695-6.0586-5.2812-10.402-6.4453l-2.125 3.9727 1.1875-4.2734c-3.6836-1.0195-7.1641-1.1055-10.57-0.22656l-1.2344 0.45703c-4.4414 2.2188-7.9453 8.0391-9.4219 10.801-5.1367 5.2695-8.2812 10.234-8.2812 17.977 0 2.5078 0.83984 4.7383 1.7656 6.7305-1.8008 9.3477-1.7539 15.504 0.023437 23.867v15.562c-1.8008 8.5-1.8008 17.402-1.8008 26.02z"/>
</svg>
