<?xml version="1.0" encoding="UTF-8"?>
<svg width="1200pt" height="1200pt" version="1.1" viewBox="0 0 1200 1200" xmlns="http://www.w3.org/2000/svg">
 <path d="m701.47 700.49c-0.69531-2.6523-1.9805-6.9102-2.9883-8.9297l-0.45703-1.2344c-1.4531-5.7734-4.4297-12.301-8.1719-17.914-12.047-18.949-27.289-32.555-48.012-42.938-0.14453 0-5.4492-1.8242-9.0703-3.6484l-2.3633-1.2461c-2.8789-1.5586-6.4805-3.5039-9.3477-3.5039l-1.6445-0.22656c-7.5352-2.1602-20.352-3.4922-31.98-3.0352l-0.035156 1.4414-18.625 1.6914c-5.9414 2.7109-12.898 8.6289-19.105 13.969-2.6406 2.2695-5.2188 4.4883-7.668 6.457v2.4844l-1.3086 0.67188c-5.1602 5.1484-8.5547 8.5547-11.855 13.488-10.094 15.145-17.281 27.469-24.816 42.551-14.578 29.16 1.1992 58.367 17.328 83.531 4.5977 4.6094 10.355 10.68 13.738 15.301l9.4453 4.7148c9.625 5.7617 15.816 10.078 19.98 20.449 3.8164 1.3906 10.586 4.0664 14.867 6.9258 0.71875 0.30078 2.2422 0.64844 4.3555 1.1055 1.7539 0.38281 3.6719 0.80469 5.8555 1.4883h6.9492l1.0938 1.0938c1.9453 0.46875 6.7812 0.70703 14.426 0.70703 1.1289-0.27734 8.3984-3.2031 12.875-6.1914l1.1055-0.57422c3.1094-1.2461 6.2148-2.2812 9.3242-3.3125 5.8438-1.957 11.375-3.793 16.812-7.0547 3.2383-1.9453 9.2148-5.8672 11.449-8.1016 7.2734-5.5312 14.207-12.406 20.914-19.117l4.9688-9.9258c1.7148-3.4219 2.9766-6.8281 4.2617-10.246 1.4141-3.7812 2.8438-7.5703 4.7383-11.363 0.89844-3.5273 2.9766-12 2.9766-15.312l0.14453-1.2969c3.2383-14.578 1.7891-26.148 0.10938-39.551z"/>
 <path d="m894 538.03c-0.5625-9.5625-1.1523-19.465-1.1523-29.426l-0.011718-0.40625c-2.6875-39-2.3398-78.395-2.0039-116.48 0.10938-12.73 0.22656-25.379 0.22656-37.906 0-17.074-3.2266-32.941-6.3477-48.277-0.96094-4.6797-1.9062-9.3359-2.7734-14.102-1.8945-9.5039-10.355-26.594-10.906-27.469-1.0312-3.625-1.9062-7.5469-2.8203-11.594-2.2578-10.066-4.8125-21.48-10.211-30.898-1.7891-3.5625-3.8047-7.5859-7.6445-11.629-1.8008-3.2266-4.3789-6.1211-5.5195-7.3203-11.461-18.562-39.145-39.492-63-41.82-6.3359-1.8242-12.59-0.058594-17.988-1.7656-3.3477-0.67188-6.4336-1.6094-9.3594-2.4961-4.8008-1.4531-9.3594-2.832-14.23-3-7.8359-2.4375-13.488-1.6211-18.926-0.82812-6.4805 0.9375-15.422 0.74219-22.754 0.39453-8.3164-0.38281-16.188-0.75781-24.961 0.48047-5.3633 0.76953-10.656 2.125-15.77 3.4453-7.3906 1.8945-14.375 3.6953-21.18 3.6953-4.9062 0-10.031 0.10938-15.238 0.22656-15.66 0.32422-31.848 0.67188-44.508-1.8477-0.64844-0.15625-1.2734-0.33594-1.8828-0.51562l0.28906-1.2227c-3.7695-1.0664-7.5977-1.8125-10.859-2.3984-1.9805-0.57422-4.5469-1.2344-7.4883-1.3906-4.6094-1.7383-10.812-1.8359-12.109-1.8359l-0.070313 0.74219c-19.586-1.2852-39.625 0.53906-59.074 2.3047-10.43 0.9375-20.832 1.8828-30.852 2.3398-21.254 0-60.742 3.2266-86.543 24.719-28.934 23.148-34.512 73.355-38.258 107.28 0 7.1055 0 13.812-1.8008 23.398 0 1.2109 0 3.5508 4.7148 8.8672-0.42188 1.8125-0.73047 3.6367-1.0312 5.4609-0.39453 2.3867-0.78125 4.7773-1.5703 7.1758l-0.3125 1.8945c0 1.2461-0.46875 2.8555-0.88672 4.2852-0.46875 1.5977-0.91016 3.1094-0.79297 3.5391-1.0938 5.4375-2.3398 11.039-3.6133 16.715-2.9531 13.176-5.9883 26.797-7.3086 40.273 0 10.355-1.7383 31.414-1.7148 31.414-0.9375 5.5664-1.4023 11.148-1.8711 16.715-0.43359 5.2305-0.86328 10.465-1.8125 16.68l0.011719 76.945c-1.8242 23.797-3.6133 48.996-3.5508 71.605-1.8711 13.094-0.12109 38.027-0.035156 38.113-1.8008 19.824-1.8242 41.664-1.8242 61.02-1.8008 7.668-1.8008 15.109-1.8008 22.32 0 2.2305 0.97266 4.8711 1.8242 6.7812 0.25391 11.293 3.4922 29.23 3.5742 29.219 0 57.695 4.5117 100.48 27.852 148.88 3 5.0039 6.3242 12.156 9.8516 19.715 9.0117 19.355 20.23 43.441 37.094 56.062 22.836 14.426 49.273 18.121 74.832 21.684 14.039 1.9688 28.559 3.9961 41.676 7.7266l5.3398 1.8125c9.9609 3.4062 22.344 7.6445 34.355 9.3008 0.82812 0 1.668 0.15625 2.5312 0.28906 2.7109 0.44531 6.3594 1.0078 10.957-0.28906h6.3008c3.7188 0 7.2344-0.20312 10.754-0.40625 6.457-0.38281 12.574-0.74219 20.051 0.25391 4.332 1.6445 11.508 1.9336 15.227 1.957 18.551 4.7656 45.574 9.9961 74.82 9.9961 27.035 0 55.969-4.4766 81.828-17.93 15.828-8.6289 21.574-12.793 35.461-22.859 3.8281-2.7734 8.2812-6 12.961-9.4453 7.8477-3.9258 20.004-15.961 20.797-16.824 32.016-24.898 39.012-62.363 45.77-98.594l1.4023-7.4531c3.5508-16.031 3.7422-45.875 3.6836-50.879 4.5586-33.023 5.5547-67.297 6.5273-100.44 0.57422-19.727 1.1758-40.129 2.5195-60.59 0-19.273 0-41.125 1.8008-61.199l-0.011718-19.367c1.0859-15.469 0.19922-30.383-0.65234-44.82zm-406.12-168.65 5.4102-10.801c3.2773-5.0039 7.1641-9.875 13.391-12.742 2.0508-3.3828 5.8203-6.0977 8.1719-7.4414 4.2734-4.0938 9.2539-7.1406 13.68-9.8398 1.6094-0.98438 3.168-1.9336 4.5977-2.8789 17.281-12.348 30.574-19.441 47.496-19.668l0.20312-1.0195c3.5039 0.69531 9.3477 1.6797 11.426 1.6797 5.9531 0 10.969 1.957 14.258 3.457l1.332 0.26562v0.023438l0.49219 0.097656-0.097656 0.39453c1.8828 0.9375 3.7188 1.9453 5.5312 2.9531 1.5352 0.85156 3.0469 1.6914 4.5586 2.4492 20.988 11.449 43.441 33.887 54.781 54.695 24.371 44.676 0.097657 95.941-36.371 117.82l-1.6797 0.85156c-1.2461 0.92578-3.5039 2.8555-5.2188 4.332-3.0977 2.6641-6.4805 5.5312-9.0586 7.2617-1.3086 0.68359-2.9141 1.4297-4.5352 1.9922v2.4844l-3.7695 1.4922c-1.0312 0.40625-10.262 4.0312-16.633 4.0312-0.39453 0.19141-7.6094 1.6094-11.797 1.7773-6.8164 1.668-12.875 2.4961-18.574 2.4961-7.8008 0-14.93-1.5703-22.379-4.7656-28.777-15.324-49.969-43.824-55.738-74.605-0.69531-2.7461-1.5586-6.5273-1.8242-8.9141-0.83984-2.6055-1.6914-5.5664-2.543-8.5312-0.875-3.0703-1.7539-6.1445-2.6289-8.7617-2.0195-13.438 0.59766-26.734 7.5195-40.582zm265.13 368.75c-0.46875 4.2227-0.94922 8.4375-1.8828 13.117l0.12109 1.5977-0.30078 0.92578c-0.011719 0.035156-3.5156 10.547-5.2812 17.555l-5.3984 21.59c-0.78125 2.1953-5.9648 15.863-9.8281 21.684-9.2148 14.746-17.148 24.613-32.41 34.152-6.5273 4.6797-12.898 9.6953-19.02 14.508-21.707 17.074-41.16 32.375-68.125 32.375-8.4102 0-17.555-1.4883-27.73-4.8828-8.9297-4.3906-14.867-6.3008-22.379-8.7109l-6.4219-2.0742-22.391-11.137c-5.9766-1.9336-11.965-7.9219-17.746-13.727 0 0.011719 0.011719 0.011719 0 0.011719-0.085938 0-7.0547-5.2695-10.801-9.0117-5.6523-7.4414-10.969-14.52-16.246-23.137-1.5352-0.86328-3.7812-2.2812-5.3633-3.8633-6.6719-4.9336-27.359-23.605-35.172-37.262-6.3008-7.7656-7.5859-17.27-8.8203-26.461-0.27734-2.0273-0.55078-4.0781-0.88672-6.1211l-0.75781-7.7539c-1.8477-18.562-3.9492-39.613 2.8438-58.297 3.8633-15.625 14.137-29.398 22.621-39.59l3.2031-5.0039c7.5352-11.688 18.938-29.352 32.004-39.156 32.09-26.09 66.133-34.141 98.102-38.941 10.836-1.668 20.004-2.9883 28.848-3.3477v-0.25391c2.3398-0.32422 14.34-1.8711 20.746 0.25391l7.0312 2.7461c1.2617 0.20312 2.3281 0.44531 3.4453 0.74219l-0.12109 0.57422c9.3008 3.8398 19.871 8.8672 29.387 16.801l0.17969 0.15625c22.129 19.906 73.094 73.043 68.566 136.29 0.058594 0 0.30078 0.91016 0.52734 1.957 0.5625 2.5078 1.2734 5.6406 1.2734 8.4258-0.96484 5.4961-1.3828 9.3828-1.8164 13.273z"/>
</svg>
