<?xml version="1.0" encoding="UTF-8"?>
<svg width="1200pt" height="1200pt" version="1.1" viewBox="0 0 1200 1200" xmlns="http://www.w3.org/2000/svg">
 <path d="m805.95 378.25c-1.7266-5.1953-5.4961-9.3711-7.8828-11.641l0.21484-0.38281c-0.48047-0.33594-0.91016-0.55078-1.0664-0.55078l0.011718-0.035157-0.42188-0.17969c-1.7539-1.5117-3.2539-2.5547-4.668-3.2656-4.7266-2.3633-9.3594-2.4375-9.875-2.4375l-0.21484 1.0547c-13.246 0.20312-23.629 9.2148-32.426 16.98l-3.8164 3.3359c-12.012 11.016-20.785 23.062-29.258 34.727-7.332 10.078-14.27 19.609-23.23 28.57-20.855 21.949-46.402 39.516-71.102 56.52-15.18 10.441-30.863 21.238-45.504 33.086-4.5586 3.9961-9.6836 7.7891-14.867 11.652-11.461 8.5195-23.305 17.328-31.176 29.137-9.7422 14.617-20.785 27.887-31.465 40.715-8.7617 10.535-17.82 21.434-26.578 33.84-5.207 10.43-9 18.035-12.66 30.539-1.4414 2.375-2.207 5.9297-2.3047 10.598-13.98 41.004-7.8594 79.008 5.4961 122.81 1.9062 9.5273 7.7383 23.566 15.289 30.949 3.7422 5.6172 7.5586 8.1016 12 10.992l3.4453 2.4727h1.8125c0.40625 0.058594 1.4414 0.45703 2.375 0.875 17.004 14.988 42.445 20.172 64.598 20.172 6.7305 0 13.152-0.48047 18.949-1.3086 11.148-1.8594 16.934-3.7422 26.102-7.4297 5.293-1.7656 10.934-5.1367 13.992-7.7656 54.695-23.27 82.738-64.43 110.34-123.62 1.9688-5.2422 4.1758-10.246 6.3594-15.18 3.7578-8.5195 7.6562-17.316 10.055-26.953 3.4922-14.855 5.7344-27.625 7.8945-39.984 2.3633-13.465 4.5859-26.172 8.3164-41.137 3.3008-15.395 8.7852-30.422 14.09-44.941 3.2539-8.9141 6.4688-17.734 9.2539-26.773 6.0234-22.57 7.1406-42.637 8.3164-63.875 0.26562-4.8008 0.53906-9.6719 0.76953-13.883 1.2109-6.0234 2.4102-13.645 3.6133-21.277l1.9062-12.301v-23.82c3.3984-7.1562 7.6094-19.539 3.3164-30.277zm-8.7734-12.508c0 0.011718 0.011719 0.035156 0.023437 0.058594-0.011718-0.011719-0.023437-0.023438-0.035156-0.023438z"/>
 <path d="m493.33 380.12c23.172-11.594 53.711-15.395 80.641-18.742l3.7812-0.46875c8.1133-0.89844 15.77-1.8008 23.438-2.6992 7.6211-0.89844 15.254-1.7891 22.656-2.6523 2.4961 0 5.8438-0.20312 9.1797-0.40625 2.9648-0.17969 7.1758-0.44531 9.3008-0.38281l34.332 14.004 2.7344-4.0664c1.9219-2.8555 3.8516-5.2422 5.9141-7.3203 2.9648-2.9648 5.7969-6.0469 8.6406-9.1328 2.8906-3.1445 5.7852-6.2773 8.8906-9.3477l1.3672-1.8828-5.2812-2.8438 6.0703 1.4414c1.043-1.8008 2.0625-3.5625 3.0469-5.3398l3.0352-5.9141-6.1445-2.5938c-5.2422-2.2188-10.477-4.4297-15.434-6.3828-7.7891-3.8984-15.445-5.8086-22.836-7.6562l-1.4531-0.17969c-1.9688 0-6.6484-0.94922-8.5664-1.3672-2.3281-0.92578-4.5234-1.9922-6.707-3.0234-1.6094-0.76953-3.2148-1.5352-4.8359-2.2578l0.058594-0.34766c-0.33594-0.085938-0.67188-0.15625-0.88672-0.15625h-0.011719l-0.44531-0.058594c-4.043-1.6914-9.5508-3.5391-17.219-3.5508-9.5898-1.4297-19.801-2.0625-31.078-1.8125l-0.16797 2.6641-0.046874-2.6406c-40.57 0.83984-83.82 13.621-118.6 35.004-9.0234 5.4102-18.504 11.281-27.973 17.148-9.4219 5.832-18.852 11.676-27.422 16.836-7.5 3.7422-19.969 12.625-19.859 12.625-3.7695 1.8945-8.0273 4.0312-11.387 7.5469-5.4492 3.6367-18.156 12.719-18.422 12.91-6.1211 4.9062-12.469 9.3828-18.73 13.801-11.965 8.4492-24.324 17.184-34.188 28.273-48.289 53.867-73.609 133.48-64.488 202.75l0.88672 7.1406c8.6289 69.359 16.789 134.87 56.062 197.32 10.824 14.438 25.055 27.059 38.363 38.449 4.7539 4.7383 9.8047 7.1523 15.035 7.1523 6.3594 0 11.867-2.9648 15.504-8.3398 4.7031-6.9375 5.7852-17.258 2.9023-24.312-1.6094-6.4805-5.3633-11.438-8.6758-15.816-1.0195-1.3438-2.0156-2.6641-3.6133-4.8477 2.832-4.9336 3.9492-11.734-0.67188-20.484-3.6484-6.9102-9.9492-13.199-15-18.254-1.8945-1.8945-3.6367-3.6133-4.9336-5.1133-1.7891-5.3516-3.7188-10.824-7.0781-15.742-19.668-42.59-30.047-95.258-30.059-152.62-1.3086-23.641-1.4766-68.531 12.301-103.97 1.7266-5.1719 6.6953-14.988 20.711-32.496 10.414-13.895 21.191-28.262 32.734-38.207 2.8555-1.9062 5.2305-3.8047 7.6094-5.7109 2.125-1.7031 4.2461-3.4062 7.6914-5.8438 0.85156-0.85156 3.9375-3.0703 6.0469-4.5 9.0703-5.4492 26.617-17.711 26.785-17.879 8.0273-4.3789 16.957-9.6484 26.16-15.086 13.621-7.9922 27.625-16.273 40.332-22.621z"/>
 <path d="m947.11 707.86c-0.22656-4.7383-0.45703-9.5625-0.45703-14.496v-0.27734c-1.957-42.863-7.9219-80.438-18.359-115.2-5.6641-15.371-12.457-30.133-19.02-44.41-8.4375-18.324-16.391-35.641-22.32-54.422-3.7422-11.23-12.59-25.477-18.121-33.059-0.53906-1.5703-1.5703-3-3.0234-3.9727-4.2227-8.375-8.0039-15.48-12.359-22.273l-4.9453-7.3789-5.1484 7.3438-1.8242 5.9023c-2.2188 17.004-4.4883 30.852-7.1523 43.559-0.55078 2.6406-1.4023 5.1016-2.3633 7.5l-0.85156 2.1133 0.75781 2.1484c20.352 57.07 39.898 119.32 45.18 187.81 0.53906 5.3633 1.6914 11.676 2.9297 18.422 2.8672 15.602 6.1211 33.277 3.0703 44.902-1.3203 2.6406-2.9023 5.2812-4.5352 8.0156-2.7461 4.6211-5.8789 9.8633-8.2188 15.707-2.7109 6.3242-5.3164 12.66-7.9062 18.984-7.5586 18.406-15.371 37.441-25.766 55.656-2.3164 3.4805-5.4102 7.5234-8.6875 11.832-6.9961 9.1914-14.93 19.609-18.527 28.117-4.5977 8.0391-4.0312 17.699 1.4883 25.188 4.5117 6.1211 11.543 9.5156 19.02 9.5156 1.8125 0 3.6484-0.20313 5.4844-0.61328 8.7617-1.4648 17.605-10.848 27.422-22.055 2.0039-2.293 4.5117-5.1367 4.8711-5.4961l1.7773-1.3555c16.883-18.758 26.328-39.613 35.281-61.105 4.3672-10.488 11.062-20.195 18.145-30.48 6.9258-10.043 14.074-20.438 19.691-32.605 5.8242-14.621 5.1289-29.324 4.4688-43.52z"/>
</svg>
