<?xml version="1.0" encoding="UTF-8"?>
<svg width="1200pt" height="1200pt" version="1.1" viewBox="0 0 1200 1200" xmlns="http://www.w3.org/2000/svg">
 <path d="m869.04 801.73c-3.7695-2.5078-8.7344-7.1758-10.766-9.1445-3.3125-8.4492-10.008-13.848-15.949-18.637-2.3047-1.8594-4.5977-3.6953-6.2656-5.3281-5.2188-6.0977-10.441-11.773-15.457-17.23-5.3398-5.8086-10.453-11.363-15.457-17.316l-23.473-23.473c0.44531-0.53906 0.89844-1.0938 1.3438-1.6445 2.375-2.9023 4.7383-5.8086 6.6836-8.7109 6.6719-10.008 15.109-20.496 24.035-31.609 18.145-22.547 36.898-45.875 44.844-69.926 1.6211-4.9062 3.2656-11.387 1.5703-18.035-2.4492-9.5625-10.883-15.59-16.477-19.586l-20.641-14.746c-6.9258-4.9453-16.285-11.594-27.672-11.125-13.754 0.71875-23.172 11.531-30.938 21.613-3.1445 4.0781-6.2773 8.5938-9.5039 13.223-6.5156 9.3828-13.223 19.031-20.664 25.957-4.9688-4.8828-9.8398-10.105-14.578-15.18-4.4766-4.7773-8.9531-9.5625-13.117-13.691-7.332-9.0234-14.137-18.059-20.855-26.977-15.035-19.969-29.258-38.82-47.965-56.281-9.0352-9.0352-18.516-18.07-27.996-27.109-9.4219-8.9648-18.828-17.93-27.793-26.891-8.2578-8.2578-23.461-20.594-26.844-23.316-6.8984-9.6367-14.062-19.02-21.18-28.344-11.531-15.109-22.43-29.363-32.184-44.543l-0.80469-0.99609c-5.1016-5.1016-10.367-10.367-14.398-16.199-3.707-3.707-8.9023-7.2617-9.0586-7.2617-6.7305-6.7305-10.043-9.6367-13.066-10.453l-1.8008-0.89844c-0.26562-0.35938-0.53906-0.71875-0.82812-1.0547l0.45703-0.875c-1.4414-0.96094-2.8672-1.7383-3.3594-1.9219-0.625-0.60156-1.2734-1.1758-2.0391-1.6914l-1.5703-0.98438-1.7891-0.035156c-2.5781-1.4883-4.7656-2.5078-6.2891-2.9648-4.7266-2.3633-10.992-2.4375-11.688-2.4375l-0.011718 0.20312c-1.9453-0.17969-3.5039-0.20312-3.5742-0.20312-2.375 0-4.0312 0.94922-5.1016 1.8008l-2.1836 0.30078c-1.2227 0.40625-2.3984 0.92578-3.5391 1.5469-6 0.27734-14.809 1.7539-14.387 1.7539-2.2578 0-4.957 0.99609-6.8633 1.8594l-5.4336 0.83203c-8.293 1.6211-17.699 3.457-24.887 6.4336-3.9961 0.79297-9.0586 1.957-13.621 3-4.9922 1.1289-9.3359 2.1602-10.402 2.293-2.293 0-6.2148 1.1406-8.1836 1.8828-2.3516 0.39453-4.6211 0.69531-6.8164 0.99609-8.2578 1.1055-16.031 2.1602-23.688 6.7578-3.9961 2.0039-8.4844 7.3672-10.477 9.9258-9.3125 6.6836-8.2305 21.852-7.5117 32.004 0.14453 1.9219 0.26562 3.5742 0.26562 4.8359v12.289c-1.7891 34.117-1.8242 43.668 1.8359 76.57 0.45703 4.1172 0.625 7.6094 0.78125 10.715 0.48047 9.6836 0.85156 17.316 9.0859 27.984 4.0664 5.2578 9.0859 9.875 13.934 14.34 2.2578 2.0898 4.5 4.1523 6.5898 6.2383l270.67 270.67c-8.6875 14.426-23.328 48.758-22.645 55.391 2.6172 25.262 38.652 41.23 62.496 51.781 3.1094 1.3789 5.9648 2.6406 8.4258 3.793 2.9883 1.3906 7.9805 3.7305 13.379 2.6055 4.1875-0.85156 7.3086-3.4453 9.8164-5.8672 10.199-9.875 20.832-23.52 29.074-37.273 3.7695-5.8555 7.4141-12.359 11.125-18.984 6.1914-11.051 12.562-22.414 19.945-31.414 22.895 28.957 117.56 103.66 118.62 104.38 3.4688 2.3633 7.4023 5.0391 11.941 6.7695 3.4219 1.2969 6.9844 1.957 10.645 1.957 5.9297 0 12.098-1.7031 18.254-5.0742 13.633-7.4648 25.152-22.309 28.008-36.086 6.8516-32.98-23.402-58.746-42.039-71.18zm-193.22-125.24c-4.4531-2.7617-8.4727-6.2383-12.73-9.9258-2.4258-2.1016-4.8477-4.1992-7.3672-6.1797-18.875-14.855-35.23-31.559-52.547-49.234-4.8711-4.9805-9.7578-9.9609-14.711-14.914l-37.586-37.586c-1.4023-1.4023-3.8867-4.3672-6.9258-7.9805-14.953-17.723-23.242-26.555-29.711-28.656l-151.96-151.96c-1.4297-1.4297-3.2656-3.0469-5.2305-4.7656-3.1328-2.7461-11.449-10.031-11.148-12.613 0.097656-0.23828 0.89844-1.1641 3.3242-2.2305 2.7227-1.2109 6.3359-1.2852 9.8281-1.3672 6.5508-0.15625 13.223-1.2617 19.68-2.3398 5.7617-0.96094 11.23-1.8711 16.031-2.0039 4.6562 1.6445 11.543 1.7773 13.727 1.7773h1.8008c6.9609 0 13.691-1.0781 20.195-2.1133 1.1523-0.19141 2.3047-0.37109 3.457-0.55078 11.41 11.426 23.039 23.148 32.676 34.355 4.7148 6.6133 12.301 15.59 18.383 22.812 3.4805 4.1172 7.6797 9.1094 9.2891 11.293l1.2852 2.125c21.84 27.793 47.219 52.621 71.746 76.621 20.242 19.801 41.16 40.273 59.688 62.016 7.2461 9.0586 15.406 18.574 23.566 28.094 8.0391 9.3828 16.078 18.758 23.184 27.637 4.1758 5.3633 9.6953 12.277 15.227 19.199 4.5977 5.7461 9.1914 11.496 13.02 16.379-4.0664 5.6172-8.6758 11.004-13.5 16.633-4.2969 5.0156-8.6055 10.043-12.551 15.277-0.046875 0.066407-0.09375 0.14063-0.14062 0.19922zm-222.11-378.98 0.011719-0.023437z"/>
</svg>
