<?xml version="1.0" encoding="UTF-8"?>
<svg width="1200pt" height="1200pt" version="1.1" viewBox="0 0 1200 1200" xmlns="http://www.w3.org/2000/svg">
 <path d="m915.35 499.21c-10.188-31.98-23.879-61.535-40.727-87.852-14.258-22.273-37.176-52.559-65.352-70.344-8.9766-5.6758-18.828-9.875-28.367-13.957-5.7461-2.4609-11.484-4.8945-16.992-7.668l-6.4062-3.2383c-14.52-7.3438-29.531-14.953-45.672-19.598-101.15-29.074-229.07-7.043-318.39 54.816-50.449 34.957-89.52 84-110.04 138.1-19.836 52.332-8.7227 112.66 1.0938 165.88l0.71875 3.9258c6.9375 37.754 19.621 67.766 41.102 97.344 19.633 27 42.109 53.426 66.805 78.516 25.992 26.426 55.727 38.496 83.977 47.594 14.293 4.6094 28.934 8.6289 43.094 12.504 10.957 3.0117 21.91 6.0234 32.773 9.3008 3.3945 1.0312 6.6953 2.1133 9.9609 3.1914 11.039 3.6133 22.453 7.3555 35.52 8.1484 2.6523 0.16797 5.293 0.23828 7.9336 0.23828 16.789 0 33.035-3.0234 45.758-5.7969 15.938-3.4805 30.551-7.7539 46.008-13.453 6.1797-2.2695 12.277-4.8242 18.395-7.3906 7.2969-3.0469 14.832-6.2031 22.414-8.7969l2.2812-0.76953c17.723-6.0703 36.047-12.336 51.07-24.574 11.855-9.6836 21.047-21.637 29.93-33.203 2.1367-2.7734 4.2461-5.543 6.4219-8.2695 5.3516-6.7812 10.859-13.441 16.355-20.074 19.094-23.051 38.832-46.883 51.625-75.637 33.309-74.879 40.125-154.67 18.715-218.93zm-51.25 109.07c-0.035156 0.26562-0.046875 0.52734-0.046875 0.79297 0 20.988-3.7578 41.676-11.82 65.09-8.1484 23.664-22.535 42.445-36.457 60.613-3.4922 4.5469-6.9961 9.2266-10.547 13.957-20.484 27.312-41.664 55.559-68.566 73.391-6.6016 4.3789-13.777 7.8828-21.371 11.605-5.1133 2.4961-10.211 4.9922-15.121 7.7539l-2.1016 1.1875c-7.0781 3.9961-15.098 8.5195-22.453 10.906-11.578 3.7422-26.879 5.7852-40.32 7.2852-9.6719 1.1172-19.43-0.70703-29.723-2.5938-4.043-0.74219-8.0742-1.4766-12.121-2.0508-53.207-7.4531-101.14-31.008-142.45-70.008-16.895-15.961-32.93-34.934-51.973-61.512-16.141-22.547-22.523-44.953-28.094-76.031-2.3047-12.887-4.4883-25.5-5.7617-38.16-7.5117-74.426 2.2578-126.16 48.602-184.16 11.461-14.34 23.172-27.793 40.465-34.754 8.2188-3.3008 16.668-4.6562 25.598-6.0859 7.7148-1.2344 15.684-2.4961 23.746-5.125 10.727-3.4805 20.867-8.375 30.684-13.129 9.8984-4.7773 19.262-9.3008 29.23-12.527 4.8945-1.5977 10.188-2.2578 15.781-2.9766 3.457-0.43359 6.8984-0.875 10.273-1.5234 5.3164-1.0195 10.691-1.668 16.055-2.3164 2.7109-0.32422 5.4102-0.66016 8.1016-1.0312 4.9336-0.67188 9.8984-0.96094 14.914-0.96094 16.344 0 33.059 3.1094 49.633 6.1797 10.703 2.0039 21.121 3.1328 30.023 4.0195 6.5391 0.67188 12.648 3.7305 19.117 6.9727l15.371 7.5352c9.457 4.6094 18.973 9.2539 28.332 14.016 14.844 7.5586 25.727 19.488 37.488 35.074 14.723 19.512 25.355 38.219 34.715 60.539 3.3359 7.9453 9.625 14.184 14.652 21.18 16.539 23.02 9.7344 79.898 6.1484 106.85z"/>
 <path d="m482.82 518.54c4.6562-2.8438 13.609-5.5664 19.969-6.0703 2.3516-0.15625 4.4648 1.2617 7.9062 3.8633 1.1406 0.86328 2.3047 1.7383 3.5039 2.543 4.6445 3.1094 9.1328 6.4922 13.609 9.8633 7.2734 5.4727 14.785 11.137 22.98 15.637 1.4297 0.78125 2.7969 1.7539 4.1875 2.6992 5.0391 3.4688 11.305 7.7539 20.027 5.8438 9.9844-2.2305 16.859-12.289 16.008-23.426-0.55078-7.1992-4.3555-12.852-7.7031-17.832-0.875-1.2969-1.7539-2.6172-2.5938-3.9609-5.3867-8.7461-11.605-16.668-18.492-23.52-14.172-14.102-34.859-29.867-53.316-26.195-15.469 0.27734-30.863 6.4688-42.445 11.914-14.746 6.9492-35.734 19.379-51.91 39.145-5.293 6.4805-17.688 21.648-10.246 38.387 4.1055 9.2539 14.723 17.867 26.004 17.867 1.4766 0 2.9648-0.14453 4.4414-0.45703 12.516-2.6406 21.492-14.809 30.168-26.605 5.7812-7.8398 11.77-15.961 17.902-19.695z"/>
 <path d="m813.45 505.45c-1.9336-2.9141-3.8516-5.8086-5.3633-8.7852-7.7383-15.18-14.363-26.594-29.23-35.34-4.8008-2.8086-9.1914-5.1367-13.633-6.9258l0.25391-0.96094c-3.3242-0.89844-6.6367-1.5859-9.9102-2.0273-4.3008-0.93359-8.9219-1.4141-14.215-1.4141v0.9375c-13.656 0.97266-27.023 6.1211-40.441 15.48-4.4766 3.1211-9.0234 5.832-13.535 8.5195-11.699 6.9727-23.797 14.184-33.133 27.574-8.7344 12.551-18.203 28.668-13.871 42.059 2.1836 6.7305 7.4297 11.594 15.59 14.438 2.9297 1.0312 5.6289 1.4766 8.125 1.4766 11.496 0 18.684-9.6133 24.203-16.98 1.2852-1.7266 2.5547-3.4336 3.8633-4.9688 9.8398-11.711 22.801-23.195 34.691-30.742 6.1211-3.8867 11.785-1.8008 21.707 2.4102 8.8906 3.7422 14.809 10.309 21.672 17.902l4.7383 5.3516c5.4375 6.3008 12.191 14.148 20.891 17.137 7.5234 2.5781 15.359 1.2461 20.953-3.5898 5.6875-4.9062 8.1719-12.648 6.6602-20.688-1.5078-7.9531-5.8398-14.516-10.016-20.863z"/>
 <path d="m773.26 671.98c-2.0273-1.3672-4.0664-2.4961-5.9648-3.3125-5.1602-2.2422-11.93-2.9883-19.297-2.9883l0.63672-1.5-0.74219 1.5h-0.63672l-0.011718-1.9922-0.78125 2.0039h-0.67188c-0.085937 0.011719-0.15625 0.011719-0.23828 0.011719l-0.48047-1.8242 0.38281 1.8242c-7.1289 0.15625-14.699 0.89844-21.828 1.6094-6.0352 0.61328-11.617 1.1758-15.898 1.2109l-25.285 0.25391c-28.766 0.27734-57.539 0.57422-86.316 0.57422h-62.062c-3.0117 0-6.3828-0.14453-9.9375-0.28906-15.266-0.64844-34.273-1.4648-45.516 7.5586-3.9492 2.6406-6.2148 5.9648-8.0273 8.6523-0.81641 1.2109-1.5703 2.3867-2.5547 3.3711l-1.7539 1.7539v10.344l0.63672 1.2617c1.8359 3.6719 4.1172 8.2305 9.1211 10.754l0.86328 0.61328h1.4297c0.32422 0.058593 1.0781 0.33594 1.8008 0.66016 13.754 12.602 40.559 10.512 62.219 8.7734 6.2891-0.49219 12.07-0.96094 16.754-0.96094 2.1836 0 5.1836-0.22656 8.5312-0.48047 5.3867-0.40625 19.668-1.5234 22.031 0.35938 0.89844 1.9922 0.88672 10.332 0.875 14.809-0.011718 5.5938-0.011718 10.402 0.70703 13.621 2.4961 11.148 6.2656 21.086 11.398 29.844l0.76953 1.1758c3.5039 5.3281 8.7617 13.309 16.586 15.648 3.4453 1.6445 10.355 4.4297 10.488 4.4297 7.5703 4.3086 15.445 6.4688 22.957 6.4688 6.4336 0 12.602-1.5703 18.109-4.7266 1.4883-0.74219 3.3242-1.4766 5.1836-2.2188 2.1836-0.875 4.3555-1.7539 6.0977-2.6289l1.5469-1.1172c0.5625-0.5625 2.0625-1.3672 2.207-1.4766l1.4648-0.17969c33.348-8.3516 39.875-53.027 38.652-77.965 2.9766-0.3125 7.5859-0.27734 12.457-0.25391 18.469 0.25391 43.812 0.39453 48.613-17.148 3.0859-11.414-5.8906-22.238-14.516-28.023z"/>
</svg>
